<?xml version="1.0" encoding="utf-8"?>
<!-- Generator: Adobe Illustrator 25.0.0, SVG Export Plug-In . SVG Version: 6.00 Build 0)  -->
<svg version="1.1" xmlns="http://www.w3.org/2000/svg" xmlns:xlink="http://www.w3.org/1999/xlink" x="0px" y="0px"
	 viewBox="0 0 1080 1080" style="enable-background:new 0 0 1080 1080;" xml:space="preserve">
<style type="text/css">
	.st0{clip-path:url(#Clipping_Mask_2_);}
	.st1{fill:none;stroke:url(#SVGID_1_);}
	.st2{fill:none;stroke:url(#SVGID_2_);}
	.st3{fill:none;stroke:url(#SVGID_3_);}
	.st4{fill:none;stroke:url(#SVGID_4_);}
	.st5{fill:none;stroke:url(#SVGID_5_);}
	.st6{fill:none;stroke:url(#SVGID_6_);}
	.st7{fill:none;stroke:url(#SVGID_7_);}
	.st8{fill:none;stroke:url(#SVGID_8_);}
	.st9{fill:none;stroke:url(#SVGID_9_);}
	.st10{fill:none;stroke:url(#SVGID_10_);}
	.st11{fill:none;stroke:url(#SVGID_11_);}
	.st12{fill:none;stroke:url(#SVGID_12_);}
	.st13{fill:none;stroke:url(#SVGID_13_);}
	.st14{fill:none;stroke:url(#SVGID_14_);}
	.st15{fill:none;stroke:url(#SVGID_15_);}
	.st16{fill:none;stroke:url(#SVGID_16_);}
	.st17{fill:none;stroke:url(#SVGID_17_);}
	.st18{fill:none;stroke:url(#SVGID_18_);}
	.st19{fill:none;stroke:url(#SVGID_19_);}
	.st20{fill:none;stroke:url(#SVGID_20_);}
	.st21{fill:none;stroke:url(#SVGID_21_);}
	.st22{fill:none;stroke:url(#SVGID_22_);}
	.st23{fill:none;stroke:url(#SVGID_23_);}
	.st24{fill:none;stroke:url(#SVGID_24_);}
	.st25{fill:none;stroke:url(#SVGID_25_);}
	.st26{fill:none;stroke:url(#SVGID_26_);}
	.st27{fill:none;stroke:url(#SVGID_27_);}
	.st28{fill:none;stroke:url(#SVGID_28_);}
	.st29{fill:none;stroke:url(#SVGID_29_);}
	.st30{fill:none;stroke:url(#SVGID_30_);}
	.st31{fill:none;stroke:url(#SVGID_31_);}
	.st32{fill:none;stroke:url(#SVGID_32_);}
	.st33{fill:none;stroke:url(#SVGID_33_);}
	.st34{fill:none;stroke:url(#SVGID_34_);}
	.st35{fill:none;stroke:url(#SVGID_35_);}
	.st36{fill:none;stroke:url(#SVGID_36_);}
	.st37{fill:none;stroke:url(#SVGID_37_);}
	.st38{fill:none;stroke:url(#SVGID_38_);}
	.st39{fill:none;stroke:url(#SVGID_39_);}
	.st40{opacity:0.7;clip-path:url(#Clipping_Mask_2_);fill:url(#SVGID_40_);stroke:#000000;}
</style>
<g id="Layer_1">
	<g>
		<defs>
			<path id="Clipping_Mask_1_" d="M602.18,380.01H484.04c-31.99,0-57.93,25.93-57.93,57.93v118.15c0,31.99,25.93,57.93,57.93,57.93
				h118.15c31.99,0,57.93-25.93,57.93-57.93V437.94C660.11,405.95,634.18,380.01,602.18,380.01z"/>
		</defs>
		<clipPath id="Clipping_Mask_2_">
			<use xlink:href="#Clipping_Mask_1_"  style="overflow:visible;"/>
		</clipPath>
		<g id="g_repeated_1_" class="st0">
			<linearGradient id="SVGID_1_" gradientUnits="userSpaceOnUse" x1="338.11" y1="539.5122" x2="741.1095" y2="539.5122">
				<stop  offset="0" style="stop-color:#1A1A1A"/>
				<stop  offset="0.5027" style="stop-color:#FFFFFF"/>
				<stop  offset="1" style="stop-color:#262626"/>
			</linearGradient>
			<path class="st1" d="M534.38,776.51c-62.35,0-112.82-20.92-150-62.18c-39.82-44.2-45.77-94.19-45.77-120.06
				c0-23.9,5.1-44.56,9.52-57.99c-3.04-14.11-4.64-28.99-4.64-43.1c0-54.1,19.68-101.72,56.93-137.7
				c35.89-34.65,82.7-52.97,135.38-52.97c9.94,0,19.94,0.71,29.71,2.11c5.63-0.61,11.32-0.91,16.91-0.91
				c85.55,0,156.49,69.78,158.14,155.54c0.13,6.06-0.06,12.29-0.57,18.5c-1.18,14.58-5.28,31.47-11.3,46.59
				c6.91,19.64,10.41,40.84,10.41,63.02c0,59.89-26.69,112.67-75.14,148.6C628.18,762.49,583.38,776.51,534.38,776.51z"/>
			<linearGradient id="SVGID_2_" gradientUnits="userSpaceOnUse" x1="342.11" y1="539.5122" x2="737.1093" y2="539.5122">
				<stop  offset="0" style="stop-color:#1A1A1A"/>
				<stop  offset="0.5027" style="stop-color:#FFFFFF"/>
				<stop  offset="1" style="stop-color:#262626"/>
			</linearGradient>
			<path class="st2" d="M534.38,772.51c-61.17,0-110.64-20.48-147.03-60.86c-38.93-43.21-44.74-92.09-44.74-117.38
				c0-23.84,5.17-44.4,9.67-57.77c-3.13-14.16-4.78-29.11-4.78-43.33c0-52.99,19.26-99.61,55.71-134.82
				c35.13-33.92,80.98-51.85,132.6-51.85c9.93,0,19.89,0.72,29.64,2.15c5.66-0.63,11.37-0.94,16.98-0.94
				c83.39,0,152.54,68.02,154.14,151.62c0.13,5.93-0.06,12.02-0.56,18.1c-1.19,14.71-5.4,31.69-11.59,46.82
				c7.09,19.62,10.69,40.84,10.69,63.1c0,58.59-26.11,110.23-73.53,145.39C626.5,758.76,582.51,772.51,534.38,772.51z"/>
			<linearGradient id="SVGID_3_" gradientUnits="userSpaceOnUse" x1="346.11" y1="539.5122" x2="733.1094" y2="539.5122">
				<stop  offset="0" style="stop-color:#1A1A1A"/>
				<stop  offset="0.5027" style="stop-color:#FFFFFF"/>
				<stop  offset="1" style="stop-color:#262626"/>
			</linearGradient>
			<path class="st3" d="M534.38,768.51c-59.99,0-108.46-20.03-144.06-59.54c-38.03-42.21-43.71-89.98-43.71-114.7
				c0-23.79,5.25-44.24,9.82-57.54c-3.23-14.21-4.93-29.23-4.93-43.55c0-51.88,18.84-97.51,54.48-131.94
				c34.37-33.18,79.26-50.72,129.82-50.72c9.91,0,19.85,0.73,29.57,2.18c5.68-0.65,11.41-0.98,17.05-0.98
				c81.22,0,148.58,66.26,150.15,147.7c0.12,5.8-0.06,11.76-0.54,17.69c-1.2,14.85-5.52,31.91-11.9,47.06
				c7.29,19.58,10.98,40.83,10.98,63.19c0,57.29-25.54,107.79-71.91,142.18C624.81,755.03,581.65,768.51,534.38,768.51z"/>
			<linearGradient id="SVGID_4_" gradientUnits="userSpaceOnUse" x1="350.11" y1="539.5122" x2="729.1094" y2="539.5122">
				<stop  offset="0" style="stop-color:#1A1A1A"/>
				<stop  offset="0.5027" style="stop-color:#FFFFFF"/>
				<stop  offset="1" style="stop-color:#262626"/>
			</linearGradient>
			<path class="st4" d="M534.38,764.51c-58.81,0-106.27-19.59-141.09-58.22c-37.14-41.22-42.68-87.88-42.68-112.02
				c0-23.73,5.33-44.09,9.97-57.32c-3.33-14.25-5.09-29.36-5.09-43.77c0-50.77,18.42-95.4,53.26-129.07
				c33.61-32.45,77.54-49.6,127.05-49.6c9.89,0,19.82,0.74,29.5,2.21c5.7-0.67,11.45-1.01,17.12-1.01
				c79.06,0,144.62,64.5,146.15,143.78c0.12,5.67-0.06,11.49-0.53,17.29c-1.21,15-5.65,32.13-12.22,47.29
				c7.49,19.54,11.29,40.83,11.29,63.29c0,56-24.96,105.35-70.29,138.97C623.12,751.31,580.78,764.51,534.38,764.51z"/>
			<linearGradient id="SVGID_5_" gradientUnits="userSpaceOnUse" x1="354.11" y1="539.5122" x2="725.1094" y2="539.5122">
				<stop  offset="0" style="stop-color:#1A1A1A"/>
				<stop  offset="0.5027" style="stop-color:#FFFFFF"/>
				<stop  offset="1" style="stop-color:#262626"/>
			</linearGradient>
			<path class="st5" d="M534.38,760.51c-57.63,0-104.09-19.14-138.12-56.9c-36.24-40.23-41.65-85.78-41.65-109.35
				c0-23.67,5.41-43.93,10.14-57.09c-3.44-14.29-5.25-29.48-5.25-44c0-49.66,18-93.3,52.04-126.19
				c32.85-31.71,75.82-48.48,124.27-48.48c9.88,0,19.78,0.76,29.44,2.25c5.72-0.7,11.5-1.05,17.19-1.05
				c76.9,0,140.66,62.74,142.15,139.85c0.12,5.54-0.06,11.23-0.52,16.89c-1.23,15.15-5.79,32.37-12.57,47.52
				c7.71,19.5,11.62,40.82,11.62,63.38c0,54.7-24.39,102.91-68.68,135.75C621.43,747.58,579.92,760.51,534.38,760.51z"/>
			<linearGradient id="SVGID_6_" gradientUnits="userSpaceOnUse" x1="358.11" y1="539.5122" x2="721.1096" y2="539.5122">
				<stop  offset="0" style="stop-color:#1A1A1A"/>
				<stop  offset="0.5027" style="stop-color:#FFFFFF"/>
				<stop  offset="1" style="stop-color:#262626"/>
			</linearGradient>
			<path class="st6" d="M534.38,756.51c-56.44,0-101.91-18.7-135.14-55.57c-35.35-39.23-40.63-83.67-40.63-106.67
				c0-23.62,5.5-43.77,10.31-56.87c-3.55-14.34-5.42-29.6-5.42-44.23c0-48.55,17.57-91.19,50.82-123.31
				c32.08-30.98,74.09-47.35,121.49-47.35c9.86,0,19.74,0.77,29.37,2.29c5.74-0.72,11.54-1.09,17.25-1.09
				c74.73,0,136.71,60.98,138.15,135.93c0.11,5.41-0.06,10.96-0.51,16.49c-1.24,15.3-5.93,32.6-12.93,47.75
				c7.94,19.46,11.97,40.81,11.97,63.48c0,53.4-23.81,100.47-67.06,132.54C619.74,743.85,579.05,756.51,534.38,756.51z"/>
			<linearGradient id="SVGID_7_" gradientUnits="userSpaceOnUse" x1="362.11" y1="539.5122" x2="717.1096" y2="539.5122">
				<stop  offset="0" style="stop-color:#1A1A1A"/>
				<stop  offset="0.5027" style="stop-color:#FFFFFF"/>
				<stop  offset="1" style="stop-color:#262626"/>
			</linearGradient>
			<path class="st7" d="M534.38,752.51c-55.26,0-99.73-18.25-132.17-54.25c-34.45-38.24-39.6-81.57-39.6-103.99
				c0-23.57,5.6-43.62,10.49-56.64c-3.67-14.38-5.61-29.72-5.61-44.45c0-47.44,17.15-89.09,49.6-120.44
				c31.32-30.24,72.37-46.23,118.71-46.23c9.85,0,19.71,0.78,29.31,2.33c5.76-0.75,11.58-1.13,17.31-1.13
				c72.57,0,132.75,59.22,134.15,132.01c0.11,5.28-0.06,10.7-0.49,16.09c-1.25,15.46-6.08,32.84-13.32,47.97
				c8.19,19.41,12.34,40.79,12.34,63.58c0,52.1-23.24,98.03-65.44,129.33C618.05,740.12,578.19,752.51,534.38,752.51z"/>
			<linearGradient id="SVGID_8_" gradientUnits="userSpaceOnUse" x1="366.11" y1="539.5122" x2="713.1097" y2="539.5122">
				<stop  offset="0" style="stop-color:#1A1A1A"/>
				<stop  offset="0.5027" style="stop-color:#FFFFFF"/>
				<stop  offset="1" style="stop-color:#262626"/>
			</linearGradient>
			<path class="st8" d="M534.38,748.51c-54.08,0-97.55-17.81-129.2-52.93c-33.56-37.25-38.57-79.46-38.57-101.31
				c0-23.52,5.7-43.46,10.68-56.41c-3.79-14.42-5.8-29.83-5.8-44.68c0-46.33,16.73-86.98,48.38-117.56
				c30.56-29.51,70.65-45.11,115.93-45.11c9.84,0,19.68,0.8,29.25,2.37c5.78-0.78,11.62-1.17,17.37-1.17
				c70.41,0,128.79,57.46,130.15,128.08c0.11,5.15-0.05,10.43-0.48,15.69c-1.27,15.63-6.25,33.09-13.73,48.19
				c8.45,19.36,12.74,40.77,12.74,63.68c0,50.8-22.67,95.59-63.82,126.11C616.37,736.4,577.33,748.51,534.38,748.51z"/>
			<linearGradient id="SVGID_9_" gradientUnits="userSpaceOnUse" x1="370.11" y1="539.5122" x2="709.1095" y2="539.5122">
				<stop  offset="0" style="stop-color:#1A1A1A"/>
				<stop  offset="0.5027" style="stop-color:#FFFFFF"/>
				<stop  offset="1" style="stop-color:#262626"/>
			</linearGradient>
			<path class="st9" d="M534.38,744.51c-52.9,0-95.37-17.36-126.23-51.61c-32.66-36.25-37.54-77.36-37.54-98.63
				c0-23.47,5.8-43.3,10.89-56.17c-3.93-14.45-6-29.95-6-44.92c0-45.22,16.31-84.88,47.16-114.68
				c29.8-28.77,68.93-43.98,113.15-43.98c9.83,0,19.65,0.81,29.19,2.42c5.79-0.81,11.66-1.22,17.43-1.22
				c68.24,0,124.83,55.7,126.15,124.16c0.11,5.02-0.05,10.16-0.47,15.29c-1.28,15.81-6.42,33.34-14.17,48.41
				c8.74,19.29,13.16,40.74,13.16,63.79c0,49.5-22.09,93.15-62.21,122.9C614.68,732.67,576.46,744.51,534.38,744.51z"/>
			<linearGradient id="SVGID_10_" gradientUnits="userSpaceOnUse" x1="374.11" y1="539.5122" x2="705.1096" y2="539.5122">
				<stop  offset="0" style="stop-color:#1A1A1A"/>
				<stop  offset="0.5027" style="stop-color:#FFFFFF"/>
				<stop  offset="1" style="stop-color:#262626"/>
			</linearGradient>
			<path class="st10" d="M534.38,740.51c-51.72,0-93.19-16.92-123.26-50.28c-31.77-35.26-36.51-75.25-36.51-95.96
				c0-23.42,5.91-43.14,11.1-55.94c-4.07-14.48-6.21-30.06-6.21-45.15c0-44.11,15.89-82.77,45.94-111.81
				c29.04-28.04,67.2-42.86,110.37-42.86c9.82,0,19.62,0.83,29.13,2.46c5.81-0.84,11.69-1.26,17.49-1.26
				c66.08,0,120.88,53.94,122.15,120.24c0.1,4.89-0.05,9.9-0.46,14.88c-1.29,15.96-6.61,33.61-14.64,48.62
				c9.04,19.23,13.62,40.72,13.62,63.9c0,48.21-21.52,90.71-60.59,119.69C612.99,728.94,575.6,740.51,534.38,740.51z"/>
			<linearGradient id="SVGID_11_" gradientUnits="userSpaceOnUse" x1="378.11" y1="539.5122" x2="701.1096" y2="539.5122">
				<stop  offset="0" style="stop-color:#1A1A1A"/>
				<stop  offset="0.5027" style="stop-color:#FFFFFF"/>
				<stop  offset="1" style="stop-color:#262626"/>
			</linearGradient>
			<path class="st11" d="M534.38,736.51c-50.54,0-91.01-16.47-120.29-48.96c-30.87-34.27-35.48-73.15-35.48-93.28
				c0-23.37,6.03-42.98,11.33-55.7c-4.22-14.51-6.44-30.17-6.44-45.39c0-43,15.46-80.66,44.72-108.93
				c28.28-27.31,65.48-41.74,107.59-41.74c9.81,0,19.59,0.85,29.08,2.52c5.83-0.87,11.72-1.31,17.54-1.31
				c63.92,0,116.92,52.18,118.15,116.32c0.1,4.76-0.05,9.63-0.45,14.48c-1.28,15.78-6.61,33.22-14.66,47.96
				c-0.08,0.44-0.17,0.89-0.25,1.34c9.22,19.03,13.89,40.41,13.89,63.55c0,46.91-20.94,88.27-58.97,116.48
				C611.3,725.21,574.73,736.51,534.38,736.51z"/>
			<linearGradient id="SVGID_12_" gradientUnits="userSpaceOnUse" x1="382.11" y1="539.5122" x2="697.1097" y2="539.5122">
				<stop  offset="0" style="stop-color:#1A1A1A"/>
				<stop  offset="0.5027" style="stop-color:#FFFFFF"/>
				<stop  offset="1" style="stop-color:#262626"/>
			</linearGradient>
			<path class="st12" d="M534.38,732.51c-49.36,0-88.83-16.03-117.32-47.64c-29.98-33.27-34.45-71.05-34.45-90.6
				c0-23.33,6.15-42.83,11.57-55.47c-4.38-14.54-6.68-30.28-6.68-45.63c0-41.89,15.04-78.56,43.5-106.05
				c27.52-26.57,63.76-40.62,104.81-40.62c9.8,0,19.57,0.86,29.03,2.57c5.84-0.91,11.75-1.37,17.59-1.37
				c61.75,0,112.96,50.42,114.15,112.39c0.1,4.62-0.05,9.36-0.43,14.08c-1.25,15.47-6.53,32.53-14.49,46.92
				c-0.19,1.07-0.4,2.16-0.62,3.24c9.34,18.78,14.07,39.97,14.07,63c0,45.61-20.37,85.83-57.35,113.26
				C609.61,721.48,573.87,732.51,534.38,732.51z"/>
			<linearGradient id="SVGID_13_" gradientUnits="userSpaceOnUse" x1="386.11" y1="539.5122" x2="693.1097" y2="539.5122">
				<stop  offset="0" style="stop-color:#1A1A1A"/>
				<stop  offset="0.5027" style="stop-color:#FFFFFF"/>
				<stop  offset="1" style="stop-color:#262626"/>
			</linearGradient>
			<path class="st13" d="M534.38,728.51c-48.18,0-86.65-15.58-114.34-46.32c-29.08-32.28-33.43-68.94-33.43-87.92
				c0-23.29,6.29-42.67,11.83-55.22c-4.54-14.57-6.94-30.39-6.94-45.87c0-40.78,14.62-76.45,42.28-103.17
				c26.76-25.84,62.04-39.49,102.03-39.49c9.8,0,19.55,0.88,28.98,2.63c5.85-0.95,11.78-1.42,17.64-1.42
				c59.59,0,109,48.66,110.15,108.47c0.09,4.49-0.05,9.1-0.42,13.68c-1.23,15.16-6.44,31.85-14.33,45.89c-0.3,1.71-0.63,3.44-1,5.16
				c9.47,18.53,14.27,39.53,14.27,62.44c0,44.31-19.79,83.39-55.74,110.05C607.93,717.76,573,728.51,534.38,728.51z"/>
			<linearGradient id="SVGID_14_" gradientUnits="userSpaceOnUse" x1="390.11" y1="539.5122" x2="689.1096" y2="539.5122">
				<stop  offset="0" style="stop-color:#1A1A1A"/>
				<stop  offset="0.5027" style="stop-color:#FFFFFF"/>
				<stop  offset="1" style="stop-color:#262626"/>
			</linearGradient>
			<path class="st14" d="M534.38,724.51c-47,0-84.47-15.14-111.37-45c-28.19-31.29-32.4-66.84-32.4-85.25
				c0-23.26,6.43-42.51,12.1-54.98c-4.72-14.59-7.22-30.49-7.22-46.11c0-39.67,14.2-74.35,41.06-100.3
				c26-25.1,60.32-38.37,99.25-38.37c9.8,0,19.53,0.9,28.94,2.69c5.87-0.99,11.81-1.49,17.68-1.49
				c57.42,0,105.05,46.9,106.15,104.55c0.09,4.36-0.05,8.83-0.41,13.28c-1.2,14.86-6.36,31.16-14.16,44.84
				c-0.4,2.35-0.87,4.73-1.39,7.1c9.61,18.26,14.48,39.07,14.48,61.88c0,43.01-19.22,80.95-54.12,106.84
				C606.24,714.03,572.14,724.51,534.38,724.51z"/>
			<linearGradient id="SVGID_15_" gradientUnits="userSpaceOnUse" x1="394.11" y1="539.5122" x2="685.1096" y2="539.5122">
				<stop  offset="0" style="stop-color:#1A1A1A"/>
				<stop  offset="0.5027" style="stop-color:#FFFFFF"/>
				<stop  offset="1" style="stop-color:#262626"/>
			</linearGradient>
			<path class="st15" d="M534.38,720.51c-45.81,0-82.29-14.69-108.4-43.67c-27.29-30.29-31.37-64.74-31.37-82.57
				c0-23.22,6.58-42.35,12.4-54.74c-4.92-14.6-7.51-30.59-7.51-46.36c0-38.56,13.77-72.24,39.84-97.42
				c25.23-24.37,58.59-37.25,96.47-37.25c9.79,0,19.51,0.93,28.9,2.75c5.88-1.03,11.83-1.55,17.72-1.55
				c55.26,0,101.09,45.14,102.16,100.63c0.09,4.23-0.04,8.56-0.4,12.88c-1.18,14.55-6.27,30.47-14,43.79
				c-0.49,2.97-1.1,6.05-1.79,9.05c9.76,17.99,14.71,38.61,14.71,61.3c0,41.71-18.65,78.51-52.5,103.62
				C604.55,710.3,571.28,720.51,534.38,720.51z"/>
			<linearGradient id="SVGID_16_" gradientUnits="userSpaceOnUse" x1="398.11" y1="539.5122" x2="681.1097" y2="539.5122">
				<stop  offset="0" style="stop-color:#1A1A1A"/>
				<stop  offset="0.5027" style="stop-color:#FFFFFF"/>
				<stop  offset="1" style="stop-color:#262626"/>
			</linearGradient>
			<path class="st16" d="M534.38,716.51c-44.63,0-80.11-14.25-105.43-42.35c-26.4-29.3-30.34-62.63-30.34-79.89
				c0-23.19,6.74-42.2,12.71-54.49c-5.12-14.61-7.82-30.69-7.82-46.6c0-37.45,13.35-70.14,38.62-94.54
				c24.47-23.63,56.87-36.12,93.69-36.12c9.8,0,19.5,0.95,28.86,2.82l0.23-0.04c5.81-1.05,11.7-1.58,17.53-1.58
				c53.1,0,97.13,43.38,98.16,96.7c0.09,4.09-0.04,8.29-0.38,12.48c-1.15,14.24-6.19,29.77-13.84,42.74
				c-0.58,3.62-1.34,7.38-2.21,11.01c9.93,17.71,14.96,38.13,14.96,60.72c0,40.42-18.07,76.08-50.89,100.41
				C602.86,706.57,570.41,716.51,534.38,716.51z"/>
			<linearGradient id="SVGID_17_" gradientUnits="userSpaceOnUse" x1="402.11" y1="539.5122" x2="677.1097" y2="539.5122">
				<stop  offset="0" style="stop-color:#1A1A1A"/>
				<stop  offset="0.5027" style="stop-color:#FFFFFF"/>
				<stop  offset="1" style="stop-color:#262626"/>
			</linearGradient>
			<path class="st17" d="M534.38,712.51c-43.45,0-77.92-13.8-102.46-41.03c-25.5-28.31-29.31-60.53-29.31-77.21
				c0-23.17,6.91-42.04,13.05-54.24c-5.34-14.62-8.16-30.77-8.16-46.86c0-36.34,12.93-68.03,37.39-91.67
				c23.71-22.9,55.15-35,90.91-35c9.8,0,19.49,0.97,28.82,2.9l0.99-0.18c5.57-1.01,11.22-1.52,16.81-1.52
				c50.93,0,93.17,41.62,94.16,92.78c0.08,3.96-0.04,8.03-0.37,12.07c-1.13,13.93-6.11,29.08-13.69,41.68
				c-0.66,4.29-1.57,8.73-2.64,12.99c10.1,17.42,15.22,37.64,15.22,60.12c0,39.12-17.5,73.64-49.27,97.2
				C601.17,702.85,569.55,712.51,534.38,712.51z"/>
			<linearGradient id="SVGID_18_" gradientUnits="userSpaceOnUse" x1="406.11" y1="539.5122" x2="673.1098" y2="539.5122">
				<stop  offset="0" style="stop-color:#1A1A1A"/>
				<stop  offset="0.5027" style="stop-color:#FFFFFF"/>
				<stop  offset="1" style="stop-color:#262626"/>
			</linearGradient>
			<path class="st18" d="M534.38,708.51c-42.27,0-75.74-13.36-99.49-39.71c-24.61-27.32-28.28-58.42-28.28-74.54
				c0-23.15,7.09-41.88,13.41-53.98c-5.58-14.61-8.53-30.86-8.53-47.11c0-35.23,12.51-65.93,36.17-88.79
				c22.95-22.16,53.43-33.88,88.14-33.88c9.79,0,19.47,1,28.77,2.97l1.75-0.32c5.33-0.96,10.75-1.45,16.1-1.45
				c48.77,0,89.22,39.86,90.16,88.86c0.08,3.83-0.04,7.76-0.36,11.67c-1.1,13.63-6.02,28.38-13.53,40.61
				c-0.74,4.96-1.8,10.09-3.1,14.99c10.29,17.12,15.51,37.13,15.51,59.52c0,37.82-16.92,71.2-47.65,93.99
				C599.49,699.12,568.68,708.51,534.38,708.51z"/>
			<linearGradient id="SVGID_19_" gradientUnits="userSpaceOnUse" x1="410.11" y1="539.5122" x2="669.1099" y2="539.5122">
				<stop  offset="0" style="stop-color:#1A1A1A"/>
				<stop  offset="0.5027" style="stop-color:#FFFFFF"/>
				<stop  offset="1" style="stop-color:#262626"/>
			</linearGradient>
			<path class="st19" d="M534.38,704.51c-41.09,0-73.56-12.91-96.52-38.38c-23.71-26.32-27.25-56.32-27.25-71.86
				c0-23.21,7.36-41.85,13.81-53.73c-5.84-14.6-8.92-30.94-8.92-47.37c0-34.12,12.09-63.82,34.95-85.91
				c22.19-21.43,51.71-32.75,85.36-32.75c9.79,0,19.44,1.03,28.71,3.05l2.54-0.46c5.1-0.92,10.27-1.39,15.38-1.39
				c46.61,0,85.26,38.1,86.16,84.93c0.08,3.7-0.04,7.5-0.35,11.27c-1.08,13.32-5.95,27.68-13.38,39.54c-0.8,5.66-2.03,11.48-3.57,17
				c10.5,16.8,15.82,36.61,15.82,58.9c0,36.52-16.35,68.76-46.03,90.77C597.8,695.39,567.82,704.51,534.38,704.51z"/>
			<linearGradient id="SVGID_20_" gradientUnits="userSpaceOnUse" x1="414.11" y1="539.5122" x2="665.1097" y2="539.5122">
				<stop  offset="0" style="stop-color:#1A1A1A"/>
				<stop  offset="0.5027" style="stop-color:#FFFFFF"/>
				<stop  offset="1" style="stop-color:#262626"/>
			</linearGradient>
			<path class="st20" d="M534.38,700.51c-39.91,0-71.38-12.47-93.54-37.06c-22.82-25.33-26.23-54.21-26.23-69.18
				c0-23.01,7.48-41.37,13.94-52.94c0.03-0.33,0.07-0.65,0.1-0.98c-6-14.46-9.16-30.74-9.16-47.17c0-33,11.66-61.72,33.73-83.04
				c21.43-20.69,49.98-31.63,82.58-31.63c9.78,0,19.41,1.05,28.63,3.13l3.33-0.61c4.86-0.88,9.79-1.32,14.66-1.32
				c44.44,0,81.3,36.34,82.16,81.01c0.07,3.57-0.04,7.23-0.33,10.87c-1.05,13.01-5.87,26.97-13.24,38.45
				c-0.86,6.37-2.25,12.9-4.07,19.04c10.73,16.47,16.17,36.07,16.17,58.28c0,35.22-15.77,66.32-44.42,87.56
				C596.11,691.66,566.95,700.51,534.38,700.51z"/>
			<linearGradient id="SVGID_21_" gradientUnits="userSpaceOnUse" x1="418.11" y1="539.5122" x2="661.1095" y2="539.5122">
				<stop  offset="0" style="stop-color:#1A1A1A"/>
				<stop  offset="0.5027" style="stop-color:#FFFFFF"/>
				<stop  offset="1" style="stop-color:#262626"/>
			</linearGradient>
			<path class="st21" d="M534.38,696.51c-38.73,0-69.2-12.02-90.57-35.74c-21.92-24.34-25.2-52.11-25.2-66.5
				c0-22.51,7.42-40.43,13.85-51.72c0.08-0.93,0.18-1.86,0.29-2.79c-6.06-14.22-9.25-30.3-9.25-46.58
				c0-31.89,11.24-59.61,32.51-80.16c20.67-19.96,48.26-30.51,79.8-30.51c9.77,0,19.36,1.08,28.54,3.21l4.14-0.75
				c4.62-0.83,9.31-1.26,13.95-1.26c42.28,0,77.34,34.58,78.16,77.09c0.07,3.44-0.04,6.96-0.32,10.47
				c-1.03,12.7-5.79,26.26-13.1,37.36c-0.9,7.1-2.48,14.34-4.6,21.1c10.98,16.13,16.55,35.51,16.55,57.63
				c0,33.92-15.2,63.88-42.8,84.35C594.42,687.93,566.09,696.51,534.38,696.51z"/>
			<linearGradient id="SVGID_22_" gradientUnits="userSpaceOnUse" x1="422.11" y1="539.5122" x2="657.1096" y2="539.5122">
				<stop  offset="0" style="stop-color:#1A1A1A"/>
				<stop  offset="0.5027" style="stop-color:#FFFFFF"/>
				<stop  offset="1" style="stop-color:#262626"/>
			</linearGradient>
			<path class="st22" d="M534.38,692.51c-37.55,0-67.02-11.58-87.6-34.42c-21.03-23.34-24.17-50.01-24.17-63.82
				c0-22.02,7.37-39.49,13.75-50.49c0.13-1.53,0.29-3.08,0.49-4.61c-6.12-13.97-9.36-29.85-9.36-46c0-30.78,10.82-57.51,31.29-77.28
				c19.91-19.22,46.54-29.38,77.02-29.38c9.75,0,19.31,1.11,28.43,3.3l4.96-0.9c4.38-0.79,8.83-1.19,13.23-1.19
				c40.12,0,73.39,32.82,74.16,73.17c0.07,3.31-0.04,6.7-0.31,10.07c-1,12.4-5.72,25.55-12.97,36.25
				c-0.93,7.86-2.7,15.81-5.17,23.19c11.26,15.76,16.96,34.92,16.96,56.98c0,32.63-14.63,61.44-41.18,81.13
				C592.73,684.21,565.23,692.51,534.38,692.51z"/>
			<linearGradient id="SVGID_23_" gradientUnits="userSpaceOnUse" x1="426.11" y1="539.5122" x2="653.1097" y2="539.5122">
				<stop  offset="0" style="stop-color:#1A1A1A"/>
				<stop  offset="0.5027" style="stop-color:#FFFFFF"/>
				<stop  offset="1" style="stop-color:#262626"/>
			</linearGradient>
			<path class="st23" d="M534.38,688.51c-36.37,0-64.84-11.13-84.63-33.09c-20.14-22.35-23.14-47.9-23.14-61.15
				c0-21.53,7.31-38.55,13.67-49.26c0.15-2.14,0.38-4.29,0.69-6.42c-6.2-13.72-9.47-29.39-9.47-45.41c0-29.67,10.4-55.4,30.07-74.41
				c19.15-18.49,44.82-28.26,74.24-28.26c9.73,0,19.25,1.14,28.31,3.38l5.8-1.06c4.14-0.75,8.35-1.13,12.51-1.13
				c37.95,0,69.43,31.06,70.16,69.24c0.07,3.18-0.03,6.43-0.3,9.67c-0.98,12.09-5.65,24.83-12.85,35.13
				c-0.94,8.64-2.92,17.32-5.77,25.31c11.57,15.38,17.43,34.31,17.43,56.3c0,31.33-14.05,59-39.57,77.92
				C591.04,680.48,564.36,688.51,534.38,688.51z"/>
			<linearGradient id="SVGID_24_" gradientUnits="userSpaceOnUse" x1="430.11" y1="539.5122" x2="649.1097" y2="539.5122">
				<stop  offset="0" style="stop-color:#1A1A1A"/>
				<stop  offset="0.5027" style="stop-color:#FFFFFF"/>
				<stop  offset="1" style="stop-color:#262626"/>
			</linearGradient>
			<path class="st24" d="M534.38,684.51c-35.19,0-62.66-10.69-81.66-31.77c-19.24-21.36-22.11-45.8-22.11-58.47
				c0-21.04,7.27-37.6,13.6-48.03c0.17-2.74,0.47-5.5,0.89-8.24c-6.29-13.46-9.6-28.93-9.6-44.82c0-28.56,9.98-53.3,28.85-71.53
				c18.38-17.75,43.09-27.14,71.46-27.14c9.71,0,19.18,1.17,28.17,3.48l6.65-1.21c3.91-0.71,7.87-1.06,11.8-1.06
				c35.79,0,65.47,29.3,66.16,65.32c0.06,3.04-0.03,6.16-0.29,9.26c-0.95,11.78-5.58,24.1-12.73,33.99
				c-0.94,9.46-3.14,18.88-6.42,27.46c11.91,14.97,17.95,33.66,17.95,55.61c0,30.03-13.48,56.56-37.95,74.71
				C589.35,676.75,563.5,684.51,534.38,684.51z"/>
			<linearGradient id="SVGID_25_" gradientUnits="userSpaceOnUse" x1="434.11" y1="539.5122" x2="645.1096" y2="539.5122">
				<stop  offset="0" style="stop-color:#1A1A1A"/>
				<stop  offset="0.5027" style="stop-color:#FFFFFF"/>
				<stop  offset="1" style="stop-color:#262626"/>
			</linearGradient>
			<path class="st25" d="M534.38,680.51c-34,0-60.48-10.25-78.69-30.45c-18.35-20.36-21.08-43.7-21.08-55.79
				c0-20.55,7.22-36.66,13.54-46.8c0.17-3.34,0.54-6.72,1.1-10.06c-6.38-13.2-9.75-28.46-9.75-44.23c0-27.45,9.55-51.19,27.63-68.65
				c17.62-17.02,41.37-26.02,68.68-26.02c9.68,0,19.1,1.2,28.02,3.57l7.52-1.37c3.67-0.66,7.39-1,11.08-1
				c33.63,0,61.51,27.54,62.16,61.4c0.06,2.91-0.03,5.9-0.27,8.86c-0.93,11.47-5.51,23.37-12.62,32.84
				c-0.91,10.32-3.36,20.5-7.13,29.66c12.3,14.53,18.54,32.98,18.54,54.89c0,28.73-12.9,54.12-36.33,71.5
				C587.67,673.02,562.63,680.51,534.38,680.51z"/>
			<linearGradient id="SVGID_26_" gradientUnits="userSpaceOnUse" x1="438.11" y1="539.5122" x2="641.1096" y2="539.5122">
				<stop  offset="0" style="stop-color:#1A1A1A"/>
				<stop  offset="0.5027" style="stop-color:#FFFFFF"/>
				<stop  offset="1" style="stop-color:#262626"/>
			</linearGradient>
			<path class="st26" d="M534.38,676.51c-32.82,0-58.3-9.8-75.71-29.13c-17.45-19.37-20.06-41.59-20.06-53.11
				c0-20.07,7.19-35.71,13.49-45.57c0.14-3.95,0.59-7.94,1.32-11.89c-6.49-12.92-9.92-27.98-9.92-43.64
				c0-26.34,9.13-49.08,26.41-65.77c16.86-16.29,39.65-24.89,65.9-24.89c9.65,0,19.01,1.23,27.85,3.67l8.41-1.53
				c3.43-0.62,6.92-0.93,10.36-0.93c31.46,0,57.56,25.78,58.17,57.47c0.06,2.78-0.03,5.63-0.26,8.46
				c-0.9,11.17-5.45,22.63-12.52,31.66c-0.86,11.23-3.58,22.17-7.9,31.9c12.75,14.06,19.2,32.26,19.2,54.15
				c0,27.43-12.33,51.68-34.71,68.28C585.98,669.3,561.77,676.51,534.38,676.51z"/>
			<linearGradient id="SVGID_27_" gradientUnits="userSpaceOnUse" x1="442.11" y1="539.5122" x2="637.1097" y2="539.5122">
				<stop  offset="0" style="stop-color:#1A1A1A"/>
				<stop  offset="0.5027" style="stop-color:#FFFFFF"/>
				<stop  offset="1" style="stop-color:#262626"/>
			</linearGradient>
			<path class="st27" d="M534.38,672.51c-31.64,0-56.12-9.36-72.74-27.81c-16.56-18.38-19.03-39.49-19.03-50.44
				c0-19.58,7.16-34.77,13.45-44.33c0.1-4.56,0.62-9.16,1.55-13.71c-6.62-12.64-10.11-27.49-10.11-43.05
				c0-25.23,8.71-46.98,25.19-62.9c16.1-15.55,37.93-23.77,63.12-23.77c9.61,0,18.91,1.27,27.66,3.77l9.32-1.7
				c3.19-0.58,6.44-0.87,9.65-0.87c29.3,0,53.6,24.02,54.17,53.55c0.05,2.65-0.03,5.36-0.25,8.06
				c-0.88,10.86-5.39,21.88-12.44,30.46c-0.78,12.2-3.79,23.93-8.77,34.19c13.26,13.55,19.97,31.5,19.97,53.38
				c0,26.13-11.75,49.24-33.1,65.07C584.29,665.57,560.9,672.51,534.38,672.51z"/>
			<linearGradient id="SVGID_28_" gradientUnits="userSpaceOnUse" x1="446.11" y1="539.5122" x2="633.1097" y2="539.5122">
				<stop  offset="0" style="stop-color:#1A1A1A"/>
				<stop  offset="0.5027" style="stop-color:#FFFFFF"/>
				<stop  offset="1" style="stop-color:#262626"/>
			</linearGradient>
			<path class="st28" d="M534.38,668.51c-30.46,0-53.94-8.91-69.77-26.48c-15.66-17.38-18-37.38-18-47.76
				c0-19.1,7.14-33.82,13.44-43.09c0.02-5.17,0.62-10.39,1.78-15.55c-6.76-12.34-10.33-26.98-10.33-42.45
				c0-24.12,8.29-44.87,23.97-60.02c15.34-14.82,36.21-22.65,60.34-22.65c9.57,0,18.8,1.3,27.44,3.87l10.25-1.87
				c2.96-0.53,5.96-0.8,8.93-0.8c27.14,0,49.64,22.26,50.17,49.63c0.05,2.52-0.03,5.1-0.24,7.66c-0.85,10.55-5.34,21.11-12.37,29.22
				c-0.67,13.25-4.01,25.79-9.75,36.56c13.85,13,20.87,30.67,20.87,52.58c0,24.83-11.18,46.8-31.48,61.86
				C582.6,661.84,560.04,668.51,534.38,668.51z"/>
			<linearGradient id="SVGID_29_" gradientUnits="userSpaceOnUse" x1="450.11" y1="539.5122" x2="629.1098" y2="539.5122">
				<stop  offset="0" style="stop-color:#1A1A1A"/>
				<stop  offset="0.5027" style="stop-color:#FFFFFF"/>
				<stop  offset="1" style="stop-color:#262626"/>
			</linearGradient>
			<path class="st29" d="M534.38,664.51c-29.28,0-51.75-8.47-66.8-25.16c-14.77-16.39-16.97-35.28-16.97-45.08
				c0-18.61,7.13-32.88,13.44-41.86c0-0.31-0.01-0.61-0.01-0.92c0-5.47,0.68-11.01,2.03-16.47c-6.93-12.03-10.58-26.46-10.58-41.85
				c0-23.01,7.87-42.77,22.75-57.14c14.58-14.08,34.48-21.52,57.56-21.52c9.53,0,18.67,1.34,27.21,3.98l11.2-2.04
				c2.72-0.49,5.48-0.74,8.22-0.74c24.97,0,45.68,20.5,46.17,45.71c0.05,2.39-0.03,4.83-0.22,7.26
				c-0.83,10.24-5.29,20.33-12.32,27.95c-0.51,14.39-4.24,27.77-10.87,39c14.55,12.38,21.92,29.77,21.92,51.73
				c0,23.54-10.61,44.36-29.86,58.64C580.91,658.11,559.18,664.51,534.38,664.51z"/>
			<linearGradient id="SVGID_30_" gradientUnits="userSpaceOnUse" x1="454.11" y1="539.5122" x2="625.1099" y2="539.5122">
				<stop  offset="0" style="stop-color:#1A1A1A"/>
				<stop  offset="0.5027" style="stop-color:#FFFFFF"/>
				<stop  offset="1" style="stop-color:#262626"/>
			</linearGradient>
			<path class="st30" d="M534.38,660.51c-28.1,0-49.57-8.02-63.83-23.84c-13.87-15.4-15.94-33.18-15.94-42.4
				c0-18.13,7.13-31.93,13.47-40.61c-0.02-0.72-0.04-1.44-0.04-2.16c0-5.68,0.78-11.42,2.32-17.08
				c-7.12-11.7-10.87-25.91-10.87-41.24c0-21.9,7.44-40.66,21.53-54.27c13.82-13.35,32.76-20.4,54.78-20.4
				c9.48,0,18.54,1.38,26.95,4.09l12.17-2.22c2.48-0.45,5-0.68,7.5-0.68c22.81,0,41.73,18.74,42.17,41.78
				c0.05,2.26-0.03,4.57-0.21,6.86c-0.8,9.92-5.26,19.53-12.29,26.63c-0.3,15.67-4.48,29.91-12.19,41.54
				c15.4,11.7,23.2,28.78,23.2,50.84c0,22.24-10.03,41.92-28.25,55.43C579.23,654.38,558.31,660.51,534.38,660.51z"/>
			<linearGradient id="SVGID_31_" gradientUnits="userSpaceOnUse" x1="458.11" y1="539.5122" x2="621.1099" y2="539.5122">
				<stop  offset="0" style="stop-color:#1A1A1A"/>
				<stop  offset="0.5027" style="stop-color:#FFFFFF"/>
				<stop  offset="1" style="stop-color:#262626"/>
			</linearGradient>
			<path class="st31" d="M534.38,656.51c-26.92,0-47.39-7.58-60.86-22.52c-12.98-14.4-14.92-31.07-14.92-39.72
				c0-17.66,7.14-30.98,13.54-39.37c-0.07-1.13-0.1-2.27-0.1-3.4c0-5.89,0.89-11.83,2.66-17.69c-7.34-11.34-11.21-25.34-11.21-40.63
				c0-20.79,7.02-38.56,20.3-51.39c13.06-12.61,31.04-19.28,52-19.28c9.42,0,18.38,1.42,26.66,4.21l13.18-2.4
				c2.24-0.41,4.52-0.61,6.78-0.61c20.64,0,37.77,16.98,38.17,37.86c0.04,2.13-0.02,4.3-0.2,6.46c-0.78,9.6-5.23,18.7-12.28,25.24
				c-0.02,17.11-4.76,32.28-13.77,44.2c16.44,10.92,24.77,27.69,24.77,49.89c0,20.94-9.46,39.48-26.63,52.22
				C577.54,650.66,557.45,656.51,534.38,656.51z"/>
			<linearGradient id="SVGID_32_" gradientUnits="userSpaceOnUse" x1="462.11" y1="539.5122" x2="617.11" y2="539.5122">
				<stop  offset="0" style="stop-color:#1A1A1A"/>
				<stop  offset="0.5027" style="stop-color:#FFFFFF"/>
				<stop  offset="1" style="stop-color:#262626"/>
			</linearGradient>
			<path class="st32" d="M534.38,652.51c-25.74,0-45.21-7.13-57.88-21.19c-12.08-13.41-13.89-28.97-13.89-37.05
				c0-17.18,7.17-30.03,13.64-38.12c-0.13-1.54-0.2-3.09-0.2-4.65c0-6.1,1.03-12.25,3.05-18.32c-7.6-10.96-11.6-24.74-11.6-40
				c0-19.68,6.6-36.45,19.08-48.51c12.3-11.88,29.32-18.15,49.23-18.15c9.36,0,18.21,1.46,26.35,4.33l14.21-2.58
				c2.01-0.36,4.05-0.55,6.07-0.55c18.48,0,33.81,15.22,34.17,33.94c0.04,2-0.02,4.04-0.19,6.05c-0.75,9.27-5.2,17.83-12.31,23.77
				c0.01,0.57,0.02,1.14,0.02,1.7c0,18.03-5.44,33.6-15.77,45.3c17.76,10.03,26.76,26.45,26.76,48.88c0,19.64-8.88,37.04-25.01,49
				C575.85,646.93,556.58,652.51,534.38,652.51z"/>
			<linearGradient id="SVGID_33_" gradientUnits="userSpaceOnUse" x1="466.11" y1="539.5122" x2="613.11" y2="539.5122">
				<stop  offset="0" style="stop-color:#1A1A1A"/>
				<stop  offset="0.5027" style="stop-color:#FFFFFF"/>
				<stop  offset="1" style="stop-color:#262626"/>
			</linearGradient>
			<path class="st33" d="M534.38,648.51c-24.56,0-43.03-6.69-54.91-19.87c-11.19-12.42-12.86-26.86-12.86-34.37
				c0-16.71,7.23-29.08,13.79-36.87c-0.23-1.93-0.35-3.91-0.35-5.9c0-6.32,1.18-12.68,3.52-18.96
				c-7.91-10.55-12.07-24.1-12.07-39.36c0-18.57,6.18-34.35,17.86-45.64c11.54-11.14,27.6-17.03,46.45-17.03
				c9.29,0,18.03,1.5,26,4.46l15.27-2.78c1.77-0.32,3.57-0.48,5.35-0.48c16.32,0,29.85,13.46,30.17,30.01
				c0.04,1.87-0.02,3.77-0.17,5.65c-0.72,8.84-5.29,16.98-12.39,22.21c0.05,1.19,0.08,2.39,0.08,3.59
				c0,18.51-6.01,34.22-17.39,45.42c-0.34,0.33-0.68,0.66-1.02,0.98c19.52,8.98,29.4,25.02,29.4,47.78
				c0,18.34-8.31,34.6-23.39,45.79C574.16,643.2,555.72,648.51,534.38,648.51z"/>
			<linearGradient id="SVGID_34_" gradientUnits="userSpaceOnUse" x1="470.11" y1="539.5122" x2="609.1101" y2="539.5122">
				<stop  offset="0" style="stop-color:#1A1A1A"/>
				<stop  offset="0.5027" style="stop-color:#FFFFFF"/>
				<stop  offset="1" style="stop-color:#262626"/>
			</linearGradient>
			<path class="st34" d="M534.38,644.51c-23.38,0-40.85-6.24-51.94-18.55c-10.29-11.42-11.83-24.76-11.83-31.69
				c0-16.24,7.31-28.14,14-35.63c-0.37-2.31-0.56-4.7-0.56-7.14c0-6.54,1.37-13.13,4.08-19.62c-8.28-10.08-12.63-23.4-12.63-38.7
				c0-17.46,5.75-32.24,16.64-42.76c10.77-10.41,25.87-15.91,43.67-15.91c9.21,0,17.82,1.55,25.62,4.6l16.37-2.98
				c1.53-0.28,3.09-0.42,4.64-0.42c14.15,0,25.9,11.7,26.17,26.09c0.03,1.74-0.02,3.5-0.16,5.25c-0.69,8.46-5.41,16.08-12.53,20.5
				c0.14,1.85,0.21,3.73,0.21,5.63c0,17.41-5.6,32.13-16.19,42.57c-1.85,1.82-3.84,3.5-5.95,5.03c22,7.66,33.13,23.29,33.13,46.58
				c0,17.04-7.73,32.17-21.78,42.58C572.47,639.47,554.85,644.51,534.38,644.51z M536.09,497.15c0.13-0.66,0.28-1.91,0.28-4.19
				c0-1.99-0.12-3.13-0.23-3.76c-0.11,0-0.53,0-0.63,0c-0.12,0.61-0.26,1.74-0.26,3.76c0,2.28,0.15,3.53,0.28,4.19
				C535.62,497.15,535.99,497.15,536.09,497.15z"/>
			<linearGradient id="SVGID_35_" gradientUnits="userSpaceOnUse" x1="474.11" y1="539.5122" x2="605.1099" y2="539.5122">
				<stop  offset="0" style="stop-color:#1A1A1A"/>
				<stop  offset="0.5027" style="stop-color:#FFFFFF"/>
				<stop  offset="1" style="stop-color:#262626"/>
			</linearGradient>
			<path class="st35" d="M534.38,640.51c-22.19,0-38.67-5.8-48.97-17.23c-9.4-10.43-10.8-22.66-10.8-29.01
				c0-15.79,7.43-27.2,14.3-34.39c-0.57-2.66-0.86-5.47-0.86-8.38c0-6.76,1.6-13.58,4.77-20.32c-8.73-9.55-13.32-22.62-13.32-38
				c0-16.34,5.33-30.14,15.42-39.88c10.01-9.67,24.15-14.79,40.89-14.79c9.13,0,17.6,1.59,25.2,4.74l17.5-3.18
				c1.29-0.23,2.61-0.35,3.92-0.35c11.99,0,21.94,9.94,22.17,22.17c0.03,1.61-0.02,3.24-0.15,4.85
				c-0.65,8.07-5.64,15.16-12.77,18.58c0.29,2.55,0.43,5.19,0.43,7.87c0,16.32-5.19,30.05-15,39.72c-3.83,3.77-8.23,6.84-13.17,9.2
				c18.39,4.13,39.16,14.21,39.16,45.26c0,15.75-7.16,29.73-20.16,39.37C570.78,635.74,553.99,640.51,534.38,640.51z M526.44,588.06
				c-0.19,0.66-0.29,1.3-0.29,1.89c0,1.06,0.06,1.33,0.35,1.6c0.4,0.38,2.17,1.62,8.29,1.62c6.41,0,11.3-1.01,14.13-2.08
				c-2.42-0.49-6.23-1.1-12.16-1.76C533.39,588.97,529.93,588.59,526.44,588.06z M535.8,485.2c-2.75,0-4.56,0-4.56,7.76
				c0,8.19,1.72,8.19,4.56,8.19s4.56,0,4.56-8.19C540.37,485.2,538.75,485.2,535.8,485.2z"/>
			<linearGradient id="SVGID_36_" gradientUnits="userSpaceOnUse" x1="478.11" y1="539.5122" x2="601.11" y2="539.5122">
				<stop  offset="0" style="stop-color:#1A1A1A"/>
				<stop  offset="0.5027" style="stop-color:#FFFFFF"/>
				<stop  offset="1" style="stop-color:#262626"/>
			</linearGradient>
			<path class="st36" d="M534.38,636.51c-21.01,0-36.49-5.35-46-15.91c-8.5-9.44-9.77-20.55-9.77-26.34
				c0-15.34,7.6-26.28,14.73-33.17c-0.86-2.97-1.29-6.19-1.29-9.6c0-8.36,2.77-15.72,5.62-21.07c-9.28-8.94-14.17-21.74-14.17-37.25
				c0-15.23,4.91-28.03,14.2-37c9.25-8.94,22.43-13.66,38.11-13.66c9.04,0,17.35,1.64,24.73,4.89l18.69-3.4
				c1.05-0.19,2.13-0.29,3.2-0.29c9.83,0,17.98,8.18,18.17,18.25c0.03,1.48-0.02,2.97-0.14,4.45c-0.63,7.77-6.08,14.22-13.17,16.32
				c0.54,3.33,0.82,6.83,0.82,10.45c0,15.22-4.77,27.97-13.81,36.87c-7.32,7.21-16.91,11.62-28.6,13.17
				c0.61,0.08,1.24,0.17,1.9,0.25c19.26,2.49,51.51,6.65,51.51,43.89c0,14.45-6.59,27.29-18.54,36.15
				C569.1,632.02,553.13,636.51,534.38,636.51z M524.06,583.61c-1.22,2.09-1.9,4.32-1.9,6.34c0,2.34,0,7.22,12.63,7.22
				c10.32,0,20.78-2.56,20.78-7.44c0-0.39-0.05-0.52-0.05-0.52c-0.5-0.73-3.56-2.22-18.31-3.85
				C532.88,584.89,528.44,584.4,524.06,583.61z M535.8,481.2c-3.41,0-8.56,0-8.56,11.76c0,12.19,4.95,12.19,8.56,12.19
				s8.56,0,8.56-12.19C544.37,481.2,539.42,481.2,535.8,481.2z"/>
			<linearGradient id="SVGID_37_" gradientUnits="userSpaceOnUse" x1="482.11" y1="539.5122" x2="597.1101" y2="539.5122">
				<stop  offset="0" style="stop-color:#1A1A1A"/>
				<stop  offset="0.5027" style="stop-color:#FFFFFF"/>
				<stop  offset="1" style="stop-color:#262626"/>
			</linearGradient>
			<path class="st37" d="M534.38,632.51c-19.83,0-34.31-4.91-43.03-14.58c-7.61-8.45-8.75-18.45-8.75-23.66
				c0-15.16,8.18-25.68,15.35-31.99c-1.27-3.21-1.92-6.83-1.92-10.78c0-8.95,3.51-16.71,6.7-21.9c-9.98-8.2-15.25-20.76-15.25-36.42
				c0-28.79,18.51-46.67,48.31-46.67c8.94,0,17.08,1.7,24.22,5.05l19.92-3.62c0.82-0.15,1.66-0.22,2.49-0.22
				c7.66,0,14.02,6.42,14.18,14.32c0.03,1.34-0.02,2.7-0.13,4.04c-0.6,7.42-6.7,13.25-13.93,13.36c1.04,4.25,1.56,8.86,1.56,13.73
				c0,14.13-4.36,25.89-12.62,34.02c-8.51,8.39-20.52,12.64-35.69,12.64c-1.63,0-3.23-0.05-4.78-0.15
				c-0.54,1.38-0.76,2.67-0.69,3.92c1.34,1.83,11.74,3.17,16.75,3.82c19.12,2.47,48.02,6.2,48.02,39.92
				c0,13.15-6.01,24.85-16.93,32.94C567.41,628.29,552.26,632.51,534.38,632.51z M522.25,579.18c-2.62,3.31-4.1,7.18-4.1,10.77
				c0,2.78,0,11.22,16.63,11.22c11.98,0,24.78-3,24.78-11.44c0-4.38-3.31-6.29-21.93-8.34
				C532.54,580.83,527.28,580.25,522.25,579.18z M535.8,477.2c-5.39,0-12.56,1.63-12.56,15.76c0,14.35,6.71,16.19,12.56,16.19
				s12.56-1.84,12.56-16.19C548.37,478.99,541.65,477.2,535.8,477.2z"/>
			<linearGradient id="SVGID_38_" gradientUnits="userSpaceOnUse" x1="486.11" y1="539.5122" x2="593.1099" y2="539.5122">
				<stop  offset="0" style="stop-color:#1A1A1A"/>
				<stop  offset="0.5027" style="stop-color:#FFFFFF"/>
				<stop  offset="1" style="stop-color:#262626"/>
			</linearGradient>
			<path class="st38" d="M534.38,628.51c-43.12,0-47.77-23.95-47.77-34.24c0-14.16,7.99-23.9,14.69-29.58
				c0.87-0.74,1.19-2.04,0.75-3.03c-1.33-2.94-2-6.35-2-10.16c0-8.54,3.62-15.96,6.66-20.69c0.74-1.15,0.44-2.84-0.65-3.69
				c-9.52-7.39-14.56-19.13-14.56-33.94c0-26.72,16.56-42.67,44.31-42.67c8.53,0,16.26,1.64,22.97,4.88
				c0.34,0.17,0.69,0.25,0.99,0.25c0.1,0,0.19-0.01,0.28-0.02l20.61-3.75c0.59-0.11,1.18-0.16,1.77-0.16
				c5.5,0,10.06,4.67,10.18,10.4c0.02,1.21-0.01,2.43-0.11,3.64c-0.44,5.43-4.9,9.69-10.15,9.69l-0.26,0c0,0-1.74-0.04-1.75-0.04
				c-0.9,0-1.44,0.55-1.69,0.87c-0.25,0.33-0.78,1.22-0.43,2.44c1.26,4.38,1.9,9.25,1.9,14.47c0,13.03-3.95,23.81-11.42,31.17
				c-7.74,7.63-18.8,11.49-32.89,11.49c-2.01,0-3.97-0.08-5.83-0.23c-0.06,0-0.11-0.01-0.17-0.01c-0.8,0-1.54,0.5-1.93,1.3
				c-1.21,2.5-1.7,4.83-1.52,7.15c0.45,4.47,7.94,5.76,20.22,7.34c18.79,2.43,44.53,5.75,44.53,35.96
				c0,11.85-5.44,22.41-15.31,29.73C565.72,624.56,551.4,628.51,534.38,628.51z M521.48,574.96c-0.57,0-1.1,0.26-1.51,0.72
				c-3.69,4.21-5.81,9.41-5.81,14.27c0,12.58,11.22,15.22,20.63,15.22c18.02,0,28.78-5.77,28.78-15.44
				c0-8.58-8.16-10.41-25.49-12.32c-5.41-0.6-11.01-1.21-16.17-2.41C521.77,574.97,521.62,574.96,521.48,574.96z M535.8,473.2
				c-13.69,0-16.56,10.75-16.56,19.76c0,13.4,5.57,20.19,16.56,20.19s16.56-6.79,16.56-20.19
				C552.37,479.85,546.79,473.2,535.8,473.2z"/>
			<linearGradient id="SVGID_39_" gradientUnits="userSpaceOnUse" x1="490.11" y1="539.5122" x2="589.11" y2="539.5122">
				<stop  offset="0" style="stop-color:#1A1A1A"/>
				<stop  offset="0.5027" style="stop-color:#FFFFFF"/>
				<stop  offset="1" style="stop-color:#262626"/>
			</linearGradient>
			<path class="st39" d="M582.18,471.44l-1.74-0.05c-4.2-0.11-7.29,4.16-6.07,8.41c1.16,4.04,1.74,8.5,1.74,13.36
				c0,23.98-13.84,38.67-40.31,38.67c-1.9,0-3.73-0.07-5.5-0.22c-2.51-0.21-4.88,1.17-6.03,3.54c-1.31,2.71-2.17,5.82-1.91,9.21
				c2.04,20.09,64.74-1.51,64.74,42.99c0,21.17-18.93,37.15-52.73,37.15c-30.33,0-43.77-12.53-43.77-30.24
				c0-12.82,7.38-21.53,13.27-26.53c2.18-1.85,3.01-5.05,1.81-7.72c-1.07-2.36-1.64-5.17-1.64-8.51c0-6.79,2.7-13.36,6.02-18.52
				c1.88-2.93,1.13-6.92-1.56-9.01c-8.29-6.43-13.01-16.69-13.01-30.78c0-23.76,14.25-38.67,40.31-38.67
				c8.13,0,15.26,1.6,21.23,4.48c1.17,0.57,2.46,0.79,3.73,0.56l20.61-3.75c3.75-0.68,7.16,2.35,7.23,6.38
				c0.02,1.08-0.01,2.17-0.1,3.24C588.22,468.89,585.46,471.53,582.18,471.44z M522.81,571.11c-2.14-0.5-4.36,0.23-5.85,1.93
				c-4.04,4.61-6.81,10.69-6.81,16.91c0,11.45,7.74,19.22,24.63,19.22c21.17,0,32.78-7.78,32.78-19.44
				C567.56,571.95,541.49,575.45,522.81,571.11z M556.37,492.96c0-16.2-8.14-23.76-20.56-23.76c-12.21,0-20.56,7.56-20.56,23.76
				c0,16.63,8.35,24.19,20.56,24.19C548.22,517.15,556.37,509.59,556.37,492.96z"/>
		</g>
		<linearGradient id="SVGID_40_" gradientUnits="userSpaceOnUse" x1="548.11" y1="656.0122" x2="548.11" y2="361.0122">
			<stop  offset="0" style="stop-color:#FFFFFF"/>
			<stop  offset="0" style="stop-color:#7C55C1"/>
			<stop  offset="0.0322" style="stop-color:#7660B4"/>
			<stop  offset="0.0925" style="stop-color:#677C90"/>
			<stop  offset="0.1737" style="stop-color:#4FA957"/>
			<stop  offset="0.1832" style="stop-color:#4CAF50"/>
			<stop  offset="0.2424" style="stop-color:#4DA855"/>
			<stop  offset="0.327" style="stop-color:#509564"/>
			<stop  offset="0.427" style="stop-color:#54767D"/>
			<stop  offset="0.5378" style="stop-color:#5B4C9F"/>
			<stop  offset="0.5899" style="stop-color:#5E35B1"/>
			<stop  offset="0.7146" style="stop-color:#6E46B9"/>
			<stop  offset="0.8618" style="stop-color:#7A53C0"/>
			<stop  offset="1" style="stop-color:#7E57C2"/>
		</linearGradient>
		<rect x="396.11" y="361.01" class="st40" width="304" height="295"/>
	</g>
</g>
<g id="Layer_2">
</g>
</svg>
