<svg xmlns="http://www.w3.org/2000/svg" xmlns:xlink="http://www.w3.org/1999/xlink" viewBox="0 0 50 50"><defs><style>.cls-1,.cls-10,.cls-11,.cls-12,.cls-13,.cls-14,.cls-15,.cls-16,.cls-17,.cls-18,.cls-19,.cls-20,.cls-21,.cls-22,.cls-23,.cls-24,.cls-25,.cls-26,.cls-27,.cls-28,.cls-29,.cls-30,.cls-31,.cls-32,.cls-33,.cls-34,.cls-35,.cls-36,.cls-37,.cls-38,.cls-39,.cls-4,.cls-40,.cls-41,.cls-42,.cls-5,.cls-6,.cls-7,.cls-8,.cls-9{fill:none;}.cls-2{isolation:isolate;}.cls-3{clip-path:url(#clip-path);}.cls-10,.cls-11,.cls-12,.cls-13,.cls-14,.cls-15,.cls-16,.cls-17,.cls-18,.cls-19,.cls-20,.cls-21,.cls-22,.cls-23,.cls-24,.cls-25,.cls-26,.cls-27,.cls-28,.cls-29,.cls-30,.cls-31,.cls-32,.cls-33,.cls-34,.cls-35,.cls-36,.cls-37,.cls-38,.cls-39,.cls-4,.cls-40,.cls-41,.cls-42,.cls-5,.cls-6,.cls-7,.cls-8,.cls-9{mix-blend-mode:screen;}.cls-4{stroke:url(#linear-gradient);}.cls-5{stroke:url(#linear-gradient-2);}.cls-6{stroke:url(#linear-gradient-3);}.cls-7{stroke:url(#linear-gradient-4);}.cls-8{stroke:url(#linear-gradient-5);}.cls-9{stroke:url(#linear-gradient-6);}.cls-10{stroke:url(#linear-gradient-7);}.cls-11{stroke:url(#linear-gradient-8);}.cls-12{stroke:url(#linear-gradient-9);}.cls-13{stroke:url(#linear-gradient-10);}.cls-14{stroke:url(#linear-gradient-11);}.cls-15{stroke:url(#linear-gradient-12);}.cls-16{stroke:url(#linear-gradient-13);}.cls-17{stroke:url(#linear-gradient-14);}.cls-18{stroke:url(#linear-gradient-15);}.cls-19{stroke:url(#linear-gradient-16);}.cls-20{stroke:url(#linear-gradient-17);}.cls-21{stroke:url(#linear-gradient-18);}.cls-22{stroke:url(#linear-gradient-19);}.cls-23{stroke:url(#linear-gradient-20);}.cls-24{stroke:url(#linear-gradient-21);}.cls-25{stroke:url(#linear-gradient-22);}.cls-26{stroke:url(#linear-gradient-23);}.cls-27{stroke:url(#linear-gradient-24);}.cls-28{stroke:url(#linear-gradient-25);}.cls-29{stroke:url(#linear-gradient-26);}.cls-30{stroke:url(#linear-gradient-27);}.cls-31{stroke:url(#linear-gradient-28);}.cls-32{stroke:url(#linear-gradient-29);}.cls-33{stroke:url(#linear-gradient-30);}.cls-34{stroke:url(#linear-gradient-31);}.cls-35{stroke:url(#linear-gradient-32);}.cls-36{stroke:url(#linear-gradient-33);}.cls-37{stroke:url(#linear-gradient-34);}.cls-38{stroke:url(#linear-gradient-35);}.cls-39{stroke:url(#linear-gradient-36);}.cls-40{stroke:url(#linear-gradient-37);}.cls-41{stroke:url(#linear-gradient-38);}.cls-42{stroke:url(#linear-gradient-39);}.cls-43{stroke:#000;opacity:0.7;fill:url(#linear-gradient-40);}</style><clipPath id="clip-path"><rect id="Clipping_Mask" data-name="Clipping Mask" class="cls-1" width="50" height="50" rx="12.38"/></clipPath><linearGradient id="linear-gradient" x1="-19.2" y1="34.08" x2="67.7" y2="34.08" gradientUnits="userSpaceOnUse"><stop offset="0" stop-color="#1a1a1a"/><stop offset="0.5" stop-color="#fff"/><stop offset="1" stop-color="#262626"/></linearGradient><linearGradient id="linear-gradient-2" x1="-18.34" y1="34.08" x2="66.85" y2="34.08" xlink:href="#linear-gradient"/><linearGradient id="linear-gradient-3" x1="-17.49" y1="34.08" x2="65.99" y2="34.08" xlink:href="#linear-gradient"/><linearGradient id="linear-gradient-4" x1="-16.63" y1="34.08" x2="65.14" y2="34.08" xlink:href="#linear-gradient"/><linearGradient id="linear-gradient-5" x1="-15.78" y1="34.08" x2="64.28" y2="34.08" xlink:href="#linear-gradient"/><linearGradient id="linear-gradient-6" x1="-14.92" y1="34.08" x2="63.43" y2="34.08" xlink:href="#linear-gradient"/><linearGradient id="linear-gradient-7" x1="-14.07" y1="34.08" x2="62.57" y2="34.08" xlink:href="#linear-gradient"/><linearGradient id="linear-gradient-8" x1="-13.21" y1="34.08" x2="61.72" y2="34.08" xlink:href="#linear-gradient"/><linearGradient id="linear-gradient-9" x1="-12.36" y1="34.08" x2="60.86" y2="34.08" xlink:href="#linear-gradient"/><linearGradient id="linear-gradient-10" x1="-11.5" y1="34.08" x2="60.01" y2="34.08" xlink:href="#linear-gradient"/><linearGradient id="linear-gradient-11" x1="-10.65" y1="34.08" x2="59.15" y2="34.08" xlink:href="#linear-gradient"/><linearGradient id="linear-gradient-12" x1="-9.79" y1="34.08" x2="58.3" y2="34.08" xlink:href="#linear-gradient"/><linearGradient id="linear-gradient-13" x1="-8.94" y1="34.08" x2="57.44" y2="34.08" xlink:href="#linear-gradient"/><linearGradient id="linear-gradient-14" x1="-8.09" y1="34.08" x2="56.59" y2="34.08" xlink:href="#linear-gradient"/><linearGradient id="linear-gradient-15" x1="-7.23" y1="34.08" x2="55.73" y2="34.08" xlink:href="#linear-gradient"/><linearGradient id="linear-gradient-16" x1="-6.38" y1="34.08" x2="54.88" y2="34.08" xlink:href="#linear-gradient"/><linearGradient id="linear-gradient-17" x1="-5.52" y1="34.08" x2="54.03" y2="34.08" xlink:href="#linear-gradient"/><linearGradient id="linear-gradient-18" x1="-4.67" y1="34.08" x2="53.17" y2="34.08" xlink:href="#linear-gradient"/><linearGradient id="linear-gradient-19" x1="-3.81" y1="34.08" x2="52.32" y2="34.08" xlink:href="#linear-gradient"/><linearGradient id="linear-gradient-20" x1="-2.96" y1="34.08" x2="51.46" y2="34.08" xlink:href="#linear-gradient"/><linearGradient id="linear-gradient-21" x1="-2.1" y1="34.08" x2="50.61" y2="34.08" xlink:href="#linear-gradient"/><linearGradient id="linear-gradient-22" x1="-1.25" y1="34.08" x2="49.75" y2="34.08" xlink:href="#linear-gradient"/><linearGradient id="linear-gradient-23" x1="-0.39" y1="34.08" x2="48.9" y2="34.08" xlink:href="#linear-gradient"/><linearGradient id="linear-gradient-24" x1="0.46" y1="34.08" x2="48.04" y2="34.08" xlink:href="#linear-gradient"/><linearGradient id="linear-gradient-25" x1="1.32" y1="34.08" x2="47.19" y2="34.08" xlink:href="#linear-gradient"/><linearGradient id="linear-gradient-26" x1="2.17" y1="34.08" x2="46.33" y2="34.08" xlink:href="#linear-gradient"/><linearGradient id="linear-gradient-27" x1="3.03" y1="34.08" x2="45.48" y2="34.08" xlink:href="#linear-gradient"/><linearGradient id="linear-gradient-28" x1="3.88" y1="34.08" x2="44.62" y2="34.08" xlink:href="#linear-gradient"/><linearGradient id="linear-gradient-29" x1="4.74" y1="34.08" x2="43.77" y2="34.08" xlink:href="#linear-gradient"/><linearGradient id="linear-gradient-30" x1="5.59" y1="34.08" x2="42.91" y2="34.08" xlink:href="#linear-gradient"/><linearGradient id="linear-gradient-31" x1="6.44" y1="34.08" x2="42.06" y2="34.08" xlink:href="#linear-gradient"/><linearGradient id="linear-gradient-32" x1="7.3" y1="34.08" x2="41.21" y2="34.08" xlink:href="#linear-gradient"/><linearGradient id="linear-gradient-33" x1="8.15" y1="34.08" x2="40.35" y2="34.08" xlink:href="#linear-gradient"/><linearGradient id="linear-gradient-34" x1="9.01" y1="34.08" x2="39.5" y2="34.08" xlink:href="#linear-gradient"/><linearGradient id="linear-gradient-35" x1="9.86" y1="34.08" x2="38.64" y2="34.08" xlink:href="#linear-gradient"/><linearGradient id="linear-gradient-36" x1="10.72" y1="34.08" x2="37.79" y2="34.08" xlink:href="#linear-gradient"/><linearGradient id="linear-gradient-37" x1="11.57" y1="34.08" x2="36.93" y2="34.08" xlink:href="#linear-gradient"/><linearGradient id="linear-gradient-38" x1="12.43" y1="34.08" x2="36.08" y2="34.08" xlink:href="#linear-gradient"/><linearGradient id="linear-gradient-39" x1="13.28" y1="34.08" x2="35.22" y2="34.08" xlink:href="#linear-gradient"/><linearGradient id="linear-gradient-40" x1="26.07" y1="58.97" x2="26.07" y2="-4.06" gradientUnits="userSpaceOnUse"><stop offset="0" stop-color="#fff"/><stop offset="0" stop-color="#7c55c1"/><stop offset="0.03" stop-color="#7660b4"/><stop offset="0.09" stop-color="#677c90"/><stop offset="0.17" stop-color="#4fa957"/><stop offset="0.18" stop-color="#4caf50"/><stop offset="0.24" stop-color="#4da855"/><stop offset="0.33" stop-color="#509564"/><stop offset="0.43" stop-color="#54767d"/><stop offset="0.54" stop-color="#5b4c9f"/><stop offset="0.59" stop-color="#5e35b1"/><stop offset="0.71" stop-color="#6e46b9"/><stop offset="0.86" stop-color="#7a53c0"/><stop offset="1" stop-color="#7e57c2"/></linearGradient></defs><g class="cls-2"><g id="Layer_1" data-name="Layer 1"><g class="cls-3"><g id="g_repeated" data-name="g repeated"><path class="cls-4" d="M23.13,84.72c-13.32,0-24.1-4.47-32-13.29A38.33,38.33,0,0,1-18.7,45.78a40,40,0,0,1,2-12.39,44.3,44.3,0,0,1-1-9.21A39.89,39.89,0,0,1-5.49-5.24c7.67-7.41,17.67-11.32,28.93-11.32a44.88,44.88,0,0,1,6.35.45,33.71,33.71,0,0,1,3.61-.19A34,34,0,0,1,67.19,16.93a37.66,37.66,0,0,1-.12,4,36.07,36.07,0,0,1-2.41,10A40.65,40.65,0,0,1,66.88,44.3,38.7,38.7,0,0,1,50.82,76.06C43.18,81.73,33.6,84.72,23.13,84.72Z"/><path class="cls-5" d="M23.13,83.87c-13.07,0-23.64-4.38-31.41-13a37.48,37.48,0,0,1-9.56-25.08,39.31,39.31,0,0,1,2.06-12.34,43.49,43.49,0,0,1-1-9.26A39.11,39.11,0,0,1-4.9-4.63,40,40,0,0,1,23.44-15.71a44.5,44.5,0,0,1,6.33.46,34.11,34.11,0,0,1,3.63-.2A33.17,33.17,0,0,1,66.34,17c0,1.27,0,2.57-.12,3.87a35,35,0,0,1-2.48,10A39.43,39.43,0,0,1,66,44.3,37.86,37.86,0,0,1,50.31,75.37C42.82,80.93,33.42,83.87,23.13,83.87Z"/><path class="cls-6" d="M23.13,83C10.32,83,0,78.73-7.65,70.29A36.69,36.69,0,0,1-17,45.78a38.25,38.25,0,0,1,2.1-12.29,42.66,42.66,0,0,1-1-9.31A38.22,38.22,0,0,1-4.3-4,39.05,39.05,0,0,1,23.44-14.85a43,43,0,0,1,6.32.47,31.86,31.86,0,0,1,3.64-.21A32.28,32.28,0,0,1,65.48,17a37,37,0,0,1-.11,3.78A34,34,0,0,1,62.82,30.8a38.55,38.55,0,0,1,2.35,13.5A37,37,0,0,1,49.81,74.68,44.34,44.34,0,0,1,23.13,83Z"/><path class="cls-7" d="M23.13,82.16C10.57,82.16.43,78-7,69.72a35.78,35.78,0,0,1-9.12-23.94A37.61,37.61,0,0,1-14,33.53a41.74,41.74,0,0,1-1.09-9.35A37.42,37.42,0,0,1-3.71-3.4,38.25,38.25,0,0,1,23.44-14a41.37,41.37,0,0,1,6.3.48,30.08,30.08,0,0,1,3.66-.22A31.44,31.44,0,0,1,64.63,17c0,1.21,0,2.46-.11,3.7a33.09,33.09,0,0,1-2.62,10.1A37.68,37.68,0,0,1,64.32,44.3,36.21,36.21,0,0,1,49.3,74C42.1,79.34,33.05,82.16,23.13,82.16Z"/><path class="cls-8" d="M23.13,81.3C10.82,81.3.89,77.21-6.38,69.15a35,35,0,0,1-8.9-23.37,36.57,36.57,0,0,1,2.17-12.2,40.47,40.47,0,0,1-1.12-9.4,36.53,36.53,0,0,1,11.12-27A37.36,37.36,0,0,1,23.44-13.14a41.14,41.14,0,0,1,6.29.48,30.24,30.24,0,0,1,3.67-.22A30.57,30.57,0,0,1,63.77,17a33.72,33.72,0,0,1-.11,3.61A32.2,32.2,0,0,1,61,30.76,36.61,36.61,0,0,1,63.46,44.3a35.37,35.37,0,0,1-14.67,29C41.74,78.54,32.87,81.3,23.13,81.3Z"/><path class="cls-9" d="M23.13,80.45c-12.06,0-21.77-4-28.87-11.88a34,34,0,0,1-8.68-22.79,35.66,35.66,0,0,1,2.2-12.15,39.75,39.75,0,0,1-1.16-9.45A35.76,35.76,0,0,1-2.52-2.17a36.55,36.55,0,0,1,26-10.12,40.79,40.79,0,0,1,6.27.49A30.59,30.59,0,0,1,33.4-12,29.72,29.72,0,0,1,62.92,17a34.76,34.76,0,0,1-.11,3.52,31.35,31.35,0,0,1-2.76,10.2A35.65,35.65,0,0,1,62.61,44.3,34.55,34.55,0,0,1,48.28,72.63,41.86,41.86,0,0,1,23.13,80.45Z"/><path class="cls-10" d="M23.13,79.59c-11.8,0-21.31-3.9-28.24-11.59a33.23,33.23,0,0,1-8.46-22.22,35,35,0,0,1,2.24-12.1,39.13,39.13,0,0,1-1.19-9.5A34.88,34.88,0,0,1-1.93-1.55a35.7,35.7,0,0,1,25.37-9.88,39.55,39.55,0,0,1,6.26.5A28.67,28.67,0,0,1,62.07,17c0,1.13,0,2.29-.11,3.44a30.36,30.36,0,0,1-2.85,10.25A34.76,34.76,0,0,1,61.75,44.3a33.68,33.68,0,0,1-14,27.64C41,77,32.5,79.59,23.13,79.59Z"/><path class="cls-11" d="M23.13,78.74c-11.55,0-20.84-3.81-27.6-11.31a32.37,32.37,0,0,1-8.24-21.65,33.88,33.88,0,0,1,2.28-12.05,38.09,38.09,0,0,1-1.24-9.55A34.07,34.07,0,0,1-1.33-.94a34.88,34.88,0,0,1,24.77-9.64,38.29,38.29,0,0,1,6.25.51,27.2,27.2,0,0,1,3.71-.25A28,28,0,0,1,61.21,17.05c0,1.1,0,2.23-.1,3.35a29.45,29.45,0,0,1-2.94,10.3A33.68,33.68,0,0,1,60.9,44.3a32.86,32.86,0,0,1-13.64,27A40.09,40.09,0,0,1,23.13,78.74Z"/><path class="cls-12" d="M23.13,77.88c-11.3,0-20.37-3.71-27-11a31.52,31.52,0,0,1-8-21.08,33,33,0,0,1,2.33-12,37.08,37.08,0,0,1-1.29-9.6A33.22,33.22,0,0,1-.74-.32a34,34,0,0,1,24.18-9.4,38.07,38.07,0,0,1,6.24.51,27.36,27.36,0,0,1,3.72-.26,27.16,27.16,0,0,1,27,26.53,32.56,32.56,0,0,1-.1,3.27,28.71,28.71,0,0,1-3,10.34A32.78,32.78,0,0,1,60,44.3,32,32,0,0,1,46.75,70.57,39.29,39.29,0,0,1,23.13,77.88Z"/><path class="cls-13" d="M23.13,77c-11,0-19.91-3.62-26.33-10.74A30.66,30.66,0,0,1-11,45.78a32.13,32.13,0,0,1,2.37-12A36.12,36.12,0,0,1-10,24.18,32.36,32.36,0,0,1-.14.29,33.19,33.19,0,0,1,23.44-8.87a36.69,36.69,0,0,1,6.22.53A26.1,26.1,0,0,1,59.5,17.08a30.8,30.8,0,0,1-.1,3.18,27.57,27.57,0,0,1-3.12,10.39A31.85,31.85,0,0,1,59.19,44.3,31.18,31.18,0,0,1,46.24,69.88,38.38,38.38,0,0,1,23.13,77Z"/><path class="cls-14" d="M23.13,76.18c-10.79,0-19.44-3.52-25.7-10.47a29.83,29.83,0,0,1-7.58-19.93,31.34,31.34,0,0,1,2.42-11.9,35.25,35.25,0,0,1-1.38-9.7A31.52,31.52,0,0,1,.45.91,32.32,32.32,0,0,1,23.44-8a36.48,36.48,0,0,1,6.21.53,26.4,26.4,0,0,1,3.75-.28A25.43,25.43,0,0,1,58.65,17.1a29.17,29.17,0,0,1-.1,3.09,26.65,26.65,0,0,1-3.13,10.25,2.5,2.5,0,0,0-.05.29,31,31,0,0,1,3,13.57,30.32,30.32,0,0,1-12.6,24.89A37.53,37.53,0,0,1,23.13,76.18Z"/><path class="cls-15" d="M23.13,75.32c-10.54,0-19-3.42-25.06-10.18A28.92,28.92,0,0,1-9.29,45.78,30.35,30.35,0,0,1-6.82,33.93a34.08,34.08,0,0,1-1.43-9.75A30.69,30.69,0,0,1,1,1.52a31.52,31.52,0,0,1,22.4-8.68,35.47,35.47,0,0,1,6.2.55A25.06,25.06,0,0,1,33.4-6.9a24.55,24.55,0,0,1,24.39,24c0,1,0,2-.09,3a25.71,25.71,0,0,1-3.1,10c0,.23-.08.46-.13.69a29.9,29.9,0,0,1,3,13.46A29.5,29.5,0,0,1,45.22,68.51,36.74,36.74,0,0,1,23.13,75.32Z"/><path class="cls-16" d="M23.13,74.47c-10.29,0-18.51-3.33-24.43-9.9A28.12,28.12,0,0,1-8.44,45.78,29.36,29.36,0,0,1-5.91,34a33.3,33.3,0,0,1-1.49-9.8,29.85,29.85,0,0,1,9-22A30.61,30.61,0,0,1,23.44-6.3a34.34,34.34,0,0,1,6.19.56A24,24,0,0,1,33.4-6,23.72,23.72,0,0,1,56.94,17.13a28.66,28.66,0,0,1-.09,2.92,24.93,24.93,0,0,1-3.06,9.81c-.07.36-.14.73-.22,1.1a28.94,28.94,0,0,1,3,13.34A28.69,28.69,0,0,1,44.71,67.82,35.82,35.82,0,0,1,23.13,74.47Z"/><path class="cls-17" d="M23.13,73.61c-10,0-18-3.23-23.79-9.61A27.24,27.24,0,0,1-7.59,45.78,28.66,28.66,0,0,1-5,34a32.25,32.25,0,0,1-1.54-9.85A29,29,0,0,1,2.23,2.75a29.87,29.87,0,0,1,21.21-8.2,32.52,32.52,0,0,1,6.18.58,22,22,0,0,1,3.78-.32A22.84,22.84,0,0,1,56.08,17.15c0,.93,0,1.88-.08,2.83a24,24,0,0,1-3,9.59c-.09.5-.19,1-.3,1.51a28,28,0,0,1,3.1,13.22A27.82,27.82,0,0,1,44.2,67.13,35,35,0,0,1,23.13,73.61Z"/><path class="cls-18" d="M23.13,72.76c-9.78,0-17.58-3.14-23.16-9.34a26.38,26.38,0,0,1-6.7-17.64A27.56,27.56,0,0,1-4.08,34.09a31.41,31.41,0,0,1-1.61-9.91A28.2,28.2,0,0,1,2.83,3.36,29,29,0,0,1,23.44-4.59,32.34,32.34,0,0,1,29.61-4,21.84,21.84,0,0,1,55.23,17.16a25.62,25.62,0,0,1-.09,2.76,23,23,0,0,1-3,9.35c-.1.64-.23,1.3-.38,1.94A27.07,27.07,0,0,1,54.91,44.3,27,27,0,0,1,43.7,66.45,34.23,34.23,0,0,1,23.13,72.76Z"/><path class="cls-19" d="M23.13,71.9C13.6,71.9,6,68.86.61,62.85A25.54,25.54,0,0,1-5.88,45.78,26.78,26.78,0,0,1-3.16,34.14a30.53,30.53,0,0,1-1.67-10A27.34,27.34,0,0,1,3.42,4a28.15,28.15,0,0,1,20-7.72,31.56,31.56,0,0,1,6.17.6h.05a21.48,21.48,0,0,1,3.74-.33,21.12,21.12,0,0,1,21,20.66,24,24,0,0,1-.08,2.67A22.09,22.09,0,0,1,51.34,29c-.13.77-.29,1.58-.48,2.35a26.22,26.22,0,0,1,3.2,13A26.17,26.17,0,0,1,43.19,65.76,33.32,33.32,0,0,1,23.13,71.9Z"/><path class="cls-20" d="M23.13,71.05c-9.28,0-16.65-3-21.89-8.77A24.66,24.66,0,0,1-5,45.78,25.83,25.83,0,0,1-2.23,34.19,29.2,29.2,0,0,1-4,24.18,26.56,26.56,0,0,1,4,4.59,27.34,27.34,0,0,1,23.44-2.88a30.72,30.72,0,0,1,6.16.61l.21,0a19.82,19.82,0,0,1,3.59-.33A20.28,20.28,0,0,1,53.52,17.2a25,25,0,0,1-.08,2.58,21.17,21.17,0,0,1-2.92,8.9c-.15.92-.34,1.87-.57,2.78A25.21,25.21,0,0,1,53.2,44.3,25.31,25.31,0,0,1,42.68,65.07,32.47,32.47,0,0,1,23.13,71.05Z"/><path class="cls-21" d="M23.13,70.19c-9,0-16.18-2.85-21.25-8.48a23.84,23.84,0,0,1-6-15.93A25,25,0,0,1-1.3,34.25,28.57,28.57,0,0,1-3.12,24.18a25.66,25.66,0,0,1,7.73-19A26.44,26.44,0,0,1,23.44-2a29.84,29.84,0,0,1,6.15.63L30-1.46a19.05,19.05,0,0,1,3.44-.31,19.42,19.42,0,0,1,19.27,19c0,.82,0,1.66-.08,2.5a20.36,20.36,0,0,1-2.89,8.67A32,32,0,0,1,49,31.59,24.25,24.25,0,0,1,52.35,44.3,24.51,24.51,0,0,1,42.17,64.39,31.69,31.69,0,0,1,23.13,70.19Z"/><path class="cls-22" d="M23.13,69.34c-8.78,0-15.71-2.76-20.62-8.2A23,23,0,0,1-3.31,45.78a24.14,24.14,0,0,1,3-11.48A27.42,27.42,0,0,1-2.27,24.18,24.84,24.84,0,0,1,5.2,5.82a25.64,25.64,0,0,1,18.24-7,28.29,28.29,0,0,1,6.13.66l.54-.1a18.3,18.3,0,0,1,3.29-.3A18.55,18.55,0,0,1,51.81,17.23c0,.79,0,1.6-.07,2.41a19.42,19.42,0,0,1-2.86,8.45,28.23,28.23,0,0,1-.77,3.63A23.29,23.29,0,0,1,51.5,44.3a23.66,23.66,0,0,1-9.84,19.4A30.76,30.76,0,0,1,23.13,69.34Z"/><path class="cls-23" d="M23.13,68.48c-8.52,0-15.25-2.66-20-7.92A22.09,22.09,0,0,1-2.46,45.78a23.3,23.3,0,0,1,3-11.31,1.49,1.49,0,0,0,0-.21A26.54,26.54,0,0,1-1.41,24.18,24,24,0,0,1,5.79,6.44,24.82,24.82,0,0,1,23.44-.32a27.53,27.53,0,0,1,6.12.67l.71-.13A17.43,17.43,0,0,1,33.4-.06,17.7,17.7,0,0,1,51,17.25c0,.76,0,1.54-.07,2.32a18.55,18.55,0,0,1-2.83,8.21,29.15,29.15,0,0,1-.87,4.07A22.42,22.42,0,0,1,50.64,44.3,22.8,22.8,0,0,1,41.15,63,29.94,29.94,0,0,1,23.13,68.48Z"/><path class="cls-24" d="M23.13,67.63c-8.27,0-14.78-2.57-19.35-7.64A21.26,21.26,0,0,1-1.6,45.78a22.33,22.33,0,0,1,3-11.05q0-.3.06-.6a25.42,25.42,0,0,1-2-10,23.17,23.17,0,0,1,7-17.13A24,24,0,0,1,23.44.53a26.72,26.72,0,0,1,6.1.69l.88-.16A16.69,16.69,0,0,1,50.1,17.26,21,21,0,0,1,50,19.5a17.45,17.45,0,0,1-2.8,8,26.24,26.24,0,0,1-1,4.51A21.42,21.42,0,0,1,49.79,44.3a22,22,0,0,1-9.15,18A29.08,29.08,0,0,1,23.13,67.63Z"/><path class="cls-25" d="M23.13,66.77c-8,0-14.32-2.47-18.71-7.35A20.39,20.39,0,0,1-.75,45.78,21.62,21.62,0,0,1,2.19,35c0-.32.06-.65.11-1a24.64,24.64,0,0,1-2-9.83A22.34,22.34,0,0,1,7,7.67,23.14,23.14,0,0,1,23.44,1.39a26.4,26.4,0,0,1,6.07.7l1.06-.19A15.88,15.88,0,0,1,49.25,17.28c0,.71,0,1.43-.07,2.15a16.58,16.58,0,0,1-2.77,7.75,25.72,25.72,0,0,1-1.1,5A20.51,20.51,0,0,1,48.93,44.3a21.13,21.13,0,0,1-8.8,17.34A28.22,28.22,0,0,1,23.13,66.77Z"/><path class="cls-26" d="M23.13,65.92c-7.77,0-13.85-2.38-18.08-7.07A19.56,19.56,0,0,1,.11,45.78,20.64,20.64,0,0,1,3,35.26q0-.69.15-1.38a23.6,23.6,0,0,1-2-9.7A21.49,21.49,0,0,1,7.58,8.28a22.28,22.28,0,0,1,15.86-6,25.18,25.18,0,0,1,6,.73l1.24-.23A15,15,0,0,1,48.39,17.3a17.85,17.85,0,0,1-.06,2.06,15.71,15.71,0,0,1-2.75,7.51,23.81,23.81,0,0,1-1.23,5.4,19.56,19.56,0,0,1,3.73,12A20.31,20.31,0,0,1,39.62,61,27.38,27.38,0,0,1,23.13,65.92Z"/><path class="cls-27" d="M23.13,65.06c-7.51,0-13.38-2.28-17.44-6.78A18.73,18.73,0,0,1,1,45.78,19.75,19.75,0,0,1,3.87,35.52a17.21,17.21,0,0,1,.19-1.76,22.65,22.65,0,0,1-2-9.58A20.67,20.67,0,0,1,8.17,8.9,21.43,21.43,0,0,1,23.44,3.1a24.39,24.39,0,0,1,6,.74l1.42-.26A14.12,14.12,0,0,1,47.54,17.31c0,.65,0,1.32-.06,2a14.85,14.85,0,0,1-2.72,7.27,22.87,22.87,0,0,1-1.37,5.86A18.6,18.6,0,0,1,47.22,44.3a19.49,19.49,0,0,1-8.11,16A26.52,26.52,0,0,1,23.13,65.06Z"/><path class="cls-28" d="M23.13,64.21c-7.26,0-12.92-2.19-16.81-6.51a17.81,17.81,0,0,1-4.5-11.92,18.94,18.94,0,0,1,2.89-10,17.64,17.64,0,0,1,.23-2.15,21.84,21.84,0,0,1-2.08-9.45A19.85,19.85,0,0,1,8.76,9.51,20.65,20.65,0,0,1,23.44,4a23.2,23.2,0,0,1,6,.77l1.6-.3a13.56,13.56,0,0,1,2.37-.21A13.39,13.39,0,0,1,46.68,17.33a17.11,17.11,0,0,1,0,1.89,13.86,13.86,0,0,1-2.7,7,22.28,22.28,0,0,1-1.52,6.34,17.61,17.61,0,0,1,4,11.72A18.64,18.64,0,0,1,38.6,59.58,25.68,25.68,0,0,1,23.13,64.21Z"/><path class="cls-29" d="M23.13,63.35c-7,0-12.45-2.09-16.17-6.22A17,17,0,0,1,2.67,45.78a18.08,18.08,0,0,1,2.88-9.73,18.11,18.11,0,0,1,.28-2.54,21,21,0,0,1-2.12-9.33,19,19,0,0,1,5.65-14A19.77,19.77,0,0,1,23.44,4.81a22.42,22.42,0,0,1,5.95.78l1.8-.33A12.42,12.42,0,0,1,45.83,17.35c0,.59,0,1.2-.06,1.8a12.9,12.9,0,0,1-2.67,6.77,21,21,0,0,1-1.69,6.81,16.67,16.67,0,0,1,4.1,11.57,17.8,17.8,0,0,1-7.42,14.6A24.89,24.89,0,0,1,23.13,63.35Z"/><path class="cls-30" d="M23.13,62.5c-6.76,0-12-2-15.54-5.94A16.11,16.11,0,0,1,3.53,45.78,17.25,17.25,0,0,1,6.4,36.31a16.23,16.23,0,0,1,.33-2.93,19.9,19.9,0,0,1-2.16-9.2A18.17,18.17,0,0,1,10,10.74,19,19,0,0,1,23.44,5.66a21.3,21.3,0,0,1,5.91.81l2-.37a12,12,0,0,1,2.06-.18A11.69,11.69,0,0,1,45,17.36a16.48,16.48,0,0,1-.06,1.72,12,12,0,0,1-2.66,6.51,19.62,19.62,0,0,1-1.87,7.31,15.68,15.68,0,0,1,4.27,11.4,17,17,0,0,1-7.07,13.91A24,24,0,0,1,23.13,62.5Z"/><path class="cls-31" d="M23.13,61.65c-6.5,0-11.52-1.91-14.9-5.66A15.27,15.27,0,0,1,4.38,45.78a16.43,16.43,0,0,1,2.87-9.21,15.65,15.65,0,0,1,.38-3.32,18.93,18.93,0,0,1-2.21-9.07,17.33,17.33,0,0,1,5.13-12.82A18.06,18.06,0,0,1,23.44,6.52a20.85,20.85,0,0,1,5.86.82L31.49,7a10.29,10.29,0,0,1,1.91-.18A10.82,10.82,0,0,1,44.12,17.38c0,.54,0,1.09,0,1.63a11.06,11.06,0,0,1-2.64,6.25,18.67,18.67,0,0,1-2.09,7.81c3,2.78,4.46,6.55,4.46,11.23a16.14,16.14,0,0,1-6.72,13.22A23.18,23.18,0,0,1,23.13,61.65Z"/><path class="cls-32" d="M23.13,60.79c-6.25,0-11-1.81-14.27-5.38a14.41,14.41,0,0,1-3.62-9.63,15.48,15.48,0,0,1,2.87-8.94v-.2a14.61,14.61,0,0,1,.43-3.52,17.88,17.88,0,0,1-2.26-8.94A16.49,16.49,0,0,1,11.14,12a17.26,17.26,0,0,1,12.3-4.6,19.77,19.77,0,0,1,5.81.85l2.4-.43a9.42,9.42,0,0,1,1.75-.16,10,10,0,0,1,9.87,9.76c0,.52,0,1-.05,1.56a10.19,10.19,0,0,1-2.63,6,17.55,17.55,0,0,1-2.33,8.33C41.37,35.9,43,39.61,43,44.3a15.34,15.34,0,0,1-6.38,12.54A22.41,22.41,0,0,1,23.13,60.79Z"/><path class="cls-33" d="M23.13,59.94c-6,0-10.59-1.72-13.63-5.1a13.53,13.53,0,0,1-3.41-9.06A14.65,14.65,0,0,1,9,37.1c0-.15,0-.3,0-.46A13.9,13.9,0,0,1,9.46,33a16.89,16.89,0,0,1-2.33-8.81,15.64,15.64,0,0,1,4.6-11.59A16.41,16.41,0,0,1,23.44,8.23a18.76,18.76,0,0,1,5.76.87l2.6-.47a8.66,8.66,0,0,1,1.6-.15,9.11,9.11,0,0,1,9,8.93,14.51,14.51,0,0,1,0,1.47,9.31,9.31,0,0,1-2.63,5.69,16.51,16.51,0,0,1-2.6,8.87c3.29,2.5,5,6.15,5,10.86a14.47,14.47,0,0,1-6,11.85A21.49,21.49,0,0,1,23.13,59.94Z"/><path class="cls-34" d="M23.13,59.08c-5.75,0-10.12-1.62-13-4.81a12.73,12.73,0,0,1-3.19-8.49,13.77,13.77,0,0,1,2.9-8.41c0-.24,0-.49,0-.73a13.31,13.31,0,0,1,.56-3.78A15.93,15.93,0,0,1,8,24.18a14.82,14.82,0,0,1,4.34-11A15.61,15.61,0,0,1,23.44,9.08a17.73,17.73,0,0,1,5.7.9L32,9.47a7.9,7.9,0,0,1,1.45-.13,8.25,8.25,0,0,1,8.16,8.09,12.82,12.82,0,0,1-.05,1.38,8.27,8.27,0,0,1-2.62,5.39A15.45,15.45,0,0,1,36,33.64c3.51,2.34,5.29,5.92,5.29,10.66a13.62,13.62,0,0,1-5.69,11.16A20.65,20.65,0,0,1,23.13,59.08Z"/><path class="cls-35" d="M23.13,58.23c-5.49,0-9.66-1.53-12.36-4.53a11.82,11.82,0,0,1-3-7.92,12.93,12.93,0,0,1,2.91-8.14c0-.33,0-.66,0-1a12.38,12.38,0,0,1,.65-3.91,14.9,14.9,0,0,1-2.48-8.55,14,14,0,0,1,4.08-10.36A14.76,14.76,0,0,1,23.44,9.94a17,17,0,0,1,5.63.92l3-.55a7.15,7.15,0,0,1,1.3-.12,7.38,7.38,0,0,1,7.3,7.25,11.29,11.29,0,0,1,0,1.3A7.4,7.4,0,0,1,38,23.82c0,.12,0,.24,0,.36a14.34,14.34,0,0,1-3.37,9.68c3.79,2.14,5.71,5.65,5.71,10.44A12.79,12.79,0,0,1,35,54.78,19.86,19.86,0,0,1,23.13,58.23Z"/><path class="cls-36" d="M23.13,57.37c-5.24,0-9.19-1.43-11.73-4.24a11,11,0,0,1-2.75-7.35A12.16,12.16,0,0,1,11.6,37.9a10.39,10.39,0,0,1-.08-1.26,11.56,11.56,0,0,1,.76-4A13.83,13.83,0,0,1,9.7,24.18a13.18,13.18,0,0,1,3.81-9.75,14,14,0,0,1,9.93-3.64,15.93,15.93,0,0,1,5.55,1l3.27-.59a6.27,6.27,0,0,1,1.14-.1,6.52,6.52,0,0,1,6.45,6.41c0,.4,0,.81,0,1.21a6.53,6.53,0,0,1-2.65,4.74c0,.26,0,.51,0,.77a13.25,13.25,0,0,1-3.71,9.71l-.22.21c4.17,1.91,6.28,5.34,6.28,10.2a12,12,0,0,1-5,9.79A19,19,0,0,1,23.13,57.37Z"/><path class="cls-37" d="M23.13,56.52c-5,0-8.72-1.34-11.09-4a10.13,10.13,0,0,1-2.53-6.77,11.31,11.31,0,0,1,3-7.61,9.58,9.58,0,0,1-.12-1.53,10.85,10.85,0,0,1,.87-4.19,12.78,12.78,0,0,1-2.7-8.27A12.33,12.33,0,0,1,14.11,15a13.1,13.1,0,0,1,9.33-3.39,14.94,14.94,0,0,1,5.47,1l3.5-.64a5.52,5.52,0,0,1,1-.09A5.66,5.66,0,0,1,39,17.48a10.47,10.47,0,0,1,0,1.12A5.72,5.72,0,0,1,36.28,23c0,.39,0,.8,0,1.2a12.43,12.43,0,0,1-3.46,9.1,10.08,10.08,0,0,1-1.28,1.07c4.71,1.64,7.08,5,7.08,9.95A11.1,11.1,0,0,1,34,53.4,18.13,18.13,0,0,1,23.13,56.52ZM23.5,25a4.68,4.68,0,0,0,.06-.9,5.34,5.34,0,0,0,0-.8h-.14a5.12,5.12,0,0,0-.05.8,4.68,4.68,0,0,0,.06.9Z"/><path class="cls-38" d="M23.13,55.66c-4.74,0-8.26-1.24-10.46-3.68a9.28,9.28,0,0,1-2.31-6.2,10.53,10.53,0,0,1,3.06-7.35,8.54,8.54,0,0,1-.19-1.79,10.27,10.27,0,0,1,1-4.34,11.76,11.76,0,0,1-2.84-8.12,11.51,11.51,0,0,1,3.29-8.52,12.24,12.24,0,0,1,8.74-3.16,14,14,0,0,1,5.38,1l3.74-.68a4.77,4.77,0,0,1,5.58,4.66c0,.35,0,.7,0,1a4.88,4.88,0,0,1-2.73,4,15.48,15.48,0,0,1,.09,1.68,11.61,11.61,0,0,1-3.2,8.49,10.33,10.33,0,0,1-2.82,2c3.93.89,8.37,3,8.37,9.67a10.29,10.29,0,0,1-4.31,8.42A17.36,17.36,0,0,1,23.13,55.66Zm-1.69-11.2a1.44,1.44,0,0,0-.06.4c0,.22,0,.28.07.34s.46.35,1.77.35a8.89,8.89,0,0,0,3-.45c-.52-.1-1.33-.23-2.6-.37C22.92,44.65,22.18,44.57,21.44,44.46Zm2-22c-.59,0-1,0-1,1.65s.37,1.76,1,1.76,1,0,1-1.76S24.07,22.48,23.44,22.48Z"/><path class="cls-39" d="M23.13,54.81c-4.49,0-7.79-1.15-9.82-3.4a8.42,8.42,0,0,1-2.09-5.63,9.74,9.74,0,0,1,3.15-7.09,7.1,7.1,0,0,1-.28-2,9.68,9.68,0,0,1,1.2-4.5,10.69,10.69,0,0,1-3-8,10.67,10.67,0,0,1,3-7.91,11.4,11.4,0,0,1,8.14-2.92,13.06,13.06,0,0,1,5.28,1.05l4-.73a3.82,3.82,0,0,1,.68-.06,4,4,0,0,1,3.88,3.9c0,.32,0,.64,0,.95A4,4,0,0,1,34.44,22a13.43,13.43,0,0,1,.18,2.23,10.75,10.75,0,0,1-2.95,7.88,10.43,10.43,0,0,1-6.12,2.81l.41.06c4.12.53,11,1.42,11,9.37A9.44,9.44,0,0,1,33,52,16.44,16.44,0,0,1,23.13,54.81ZM20.93,43.5a2.8,2.8,0,0,0-.41,1.36c0,.5,0,1.54,2.7,1.54,2.21,0,4.44-.54,4.44-1.59a.4.4,0,0,0,0-.11c-.11-.15-.76-.47-3.91-.82C22.81,43.78,21.87,43.67,20.93,43.5Zm2.51-21.88c-.73,0-1.83,0-1.83,2.51s1.06,2.61,1.83,2.61,1.83,0,1.83-2.61S24.21,21.62,23.44,21.62Z"/><path class="cls-40" d="M23.13,54c-4.23,0-7.33-1.05-9.19-3.11a7.62,7.62,0,0,1-1.87-5.06A9,9,0,0,1,15.35,39a6.29,6.29,0,0,1-.41-2.31A9,9,0,0,1,16.38,32c-2.14-1.75-3.26-4.43-3.26-7.78,0-6.15,4-10,10.32-10a12,12,0,0,1,5.17,1.08l4.26-.78a3.07,3.07,0,0,1,3.56,3,6.24,6.24,0,0,1,0,.86,3.09,3.09,0,0,1-3,2.86,12.4,12.4,0,0,1,.33,2.93,9.93,9.93,0,0,1-2.69,7.27,10.46,10.46,0,0,1-7.63,2.7q-.53,0-1,0a1.85,1.85,0,0,0-.15.84c.29.39,2.51.68,3.58.81,4.09.53,10.26,1.33,10.26,8.53a8.59,8.59,0,0,1-3.62,7A15.59,15.59,0,0,1,23.13,54ZM20.54,42.56a3.77,3.77,0,0,0-.87,2.3c0,.59,0,2.4,3.55,2.4,2.56,0,5.3-.65,5.3-2.45,0-.93-.71-1.34-4.69-1.78C22.74,42.91,21.62,42.79,20.54,42.56Zm2.9-21.79c-1.15,0-2.69.35-2.69,3.36s1.44,3.46,2.69,3.46,2.68-.39,2.68-3.46S24.69,20.77,23.44,20.77Z"/><path class="cls-41" d="M23.13,53.1c-9.21,0-10.2-5.12-10.2-7.32a8.24,8.24,0,0,1,3.14-6.32.6.6,0,0,0,.16-.65,5.09,5.09,0,0,1-.43-2.17,8.38,8.38,0,0,1,1.42-4.42.61.61,0,0,0-.14-.79c-2-1.57-3.11-4.08-3.11-7.25,0-5.71,3.54-9.12,9.47-9.12a11.27,11.27,0,0,1,4.91,1,.54.54,0,0,0,.21.05h.06l4.4-.81a2.43,2.43,0,0,1,.38,0,2.24,2.24,0,0,1,2.18,2.22q0,.39,0,.78a2.22,2.22,0,0,1-2.17,2.07H33a.46.46,0,0,0-.36.19.61.61,0,0,0-.09.52,11.21,11.21,0,0,1,.41,3.09,9.09,9.09,0,0,1-2.44,6.66,9.64,9.64,0,0,1-7,2.46c-.43,0-.85,0-1.25,0h0a.46.46,0,0,0-.41.27,2.93,2.93,0,0,0-.33,1.53c.1,1,1.7,1.23,4.32,1.57,4,.52,9.52,1.23,9.52,7.68A7.79,7.79,0,0,1,32,50.66,14.83,14.83,0,0,1,23.13,53.1ZM20.38,41.65a.45.45,0,0,0-.33.16,4.8,4.8,0,0,0-1.24,3c0,2.69,2.4,3.25,4.41,3.25,3.85,0,6.15-1.23,6.15-3.3,0-1.83-1.74-2.22-5.45-2.63a32.19,32.19,0,0,1-3.45-.51Zm3.06-21.74c-2.93,0-3.54,2.3-3.54,4.22,0,2.87,1.19,4.32,3.54,4.32S27,27,27,24.13,25.79,19.91,23.44,19.91Z"/><path class="cls-42" d="M33.35,19.54H33a1.38,1.38,0,0,0-1.3,1.8,10.19,10.19,0,0,1,.37,2.85c0,5.12-3,8.26-8.61,8.26-.41,0-.8,0-1.18,0a1.28,1.28,0,0,0-1.28.75,3.8,3.8,0,0,0-.41,2C21,39.41,34.4,34.8,34.4,44.3c0,4.53-4,7.94-11.27,7.94-6.48,0-9.35-2.67-9.35-6.46a7.42,7.42,0,0,1,2.84-5.67A1.43,1.43,0,0,0,17,38.46a4.47,4.47,0,0,1-.35-1.82,7.55,7.55,0,0,1,1.29-4,1.47,1.47,0,0,0-.33-1.92c-1.78-1.38-2.78-3.57-2.78-6.58,0-5.08,3-8.26,8.61-8.26a10.26,10.26,0,0,1,4.53,1,1.31,1.31,0,0,0,.8.12l4.41-.8a1.34,1.34,0,0,1,1.54,1.36,5.3,5.3,0,0,1,0,.69A1.36,1.36,0,0,1,33.35,19.54ZM20.66,40.83a1.3,1.3,0,0,0-1.25.41A5.65,5.65,0,0,0,18,44.86C18,47.3,19.61,49,23.22,49c4.53,0,7-1.67,7-4.16C30.23,41,24.65,41.76,20.66,40.83Zm7.17-16.7c0-3.46-1.74-5.07-4.39-5.07s-4.39,1.61-4.39,5.07,1.78,5.17,4.39,5.17S27.83,27.69,27.83,24.13Z"/></g><rect class="cls-43" x="-6.41" y="-4.06" width="64.96" height="63.03"/></g></g></g></svg>